<mxfile host="65bd71144e">
    <diagram id="Mh9ALNeCVeHL3GK7aMIk" name="Page-1">
        <mxGraphModel dx="1492" dy="5268" grid="0" gridSize="10" guides="1" tooltips="1" connect="1" arrows="1" fold="1" page="1" pageScale="1" pageWidth="850" pageHeight="1100" background="#ffffff" math="0" shadow="0">
            <root>
                <mxCell id="0"/>
                <mxCell id="1" parent="0"/>
                <mxCell id="746" value="" style="edgeStyle=none;shape=link;html=1;" parent="1" source="455" target="504" edge="1">
                    <mxGeometry relative="1" as="geometry"/>
                </mxCell>
                <mxCell id="455" value="&lt;font style=&quot;font-size: 30px;&quot;&gt;Question&lt;/font&gt;" style="rounded=0;whiteSpace=wrap;html=1;fontSize=30;fontStyle=1;fillColor=#008a00;fontColor=#ffffff;strokeColor=#000000;strokeWidth=2;" parent="1" vertex="1">
                    <mxGeometry x="1069" y="-3080" width="160" height="80" as="geometry"/>
                </mxCell>
                <mxCell id="456" value="&lt;span style=&quot;font-size: 19px;&quot;&gt;&lt;u&gt;question_id&lt;/u&gt;&lt;/span&gt;" style="ellipse;whiteSpace=wrap;html=1;fontSize=30;fillColor=#fa6800;fontColor=#000000;strokeColor=#000000;strokeWidth=2;" parent="1" vertex="1">
                    <mxGeometry x="767.9999999999999" y="-3056" width="118.26" height="50" as="geometry"/>
                </mxCell>
                <mxCell id="457" value="&lt;span style=&quot;font-size: 19px;&quot;&gt;difficulty&lt;/span&gt;" style="ellipse;whiteSpace=wrap;html=1;fontSize=30;fillColor=#e3c800;fontColor=#000000;strokeColor=#000000;strokeWidth=2;" parent="1" vertex="1">
                    <mxGeometry x="973.54" y="-3214" width="85" height="50" as="geometry"/>
                </mxCell>
                <mxCell id="458" value="&lt;span style=&quot;font-size: 19px;&quot;&gt;text&lt;/span&gt;" style="ellipse;whiteSpace=wrap;html=1;fontSize=30;fillColor=#e3c800;fontColor=#000000;strokeColor=#000000;strokeWidth=2;" parent="1" vertex="1">
                    <mxGeometry x="1067.9900000000002" y="-3220" width="60" height="50" as="geometry"/>
                </mxCell>
                <mxCell id="459" value="" style="endArrow=none;html=1;fontSize=30;entryX=0.5;entryY=1;entryDx=0;entryDy=0;strokeWidth=2;strokeColor=#000000;exitX=0.5;exitY=0;exitDx=0;exitDy=0;" parent="1" source="455" target="458" edge="1">
                    <mxGeometry width="50" height="50" relative="1" as="geometry">
                        <mxPoint x="1239" y="-3090" as="sourcePoint"/>
                        <mxPoint x="799.1699999999996" y="-3390" as="targetPoint"/>
                    </mxGeometry>
                </mxCell>
                <mxCell id="460" value="" style="endArrow=none;html=1;fontSize=30;entryX=0.5;entryY=1;entryDx=0;entryDy=0;exitX=0.25;exitY=0;exitDx=0;exitDy=0;strokeWidth=2;strokeColor=#000000;" parent="1" source="455" target="457" edge="1">
                    <mxGeometry width="50" height="50" relative="1" as="geometry">
                        <mxPoint x="939" y="-3005" as="sourcePoint"/>
                        <mxPoint x="1023.9999999999995" y="-3065" as="targetPoint"/>
                    </mxGeometry>
                </mxCell>
                <mxCell id="461" value="" style="endArrow=none;html=1;fontSize=30;entryX=1;entryY=0.5;entryDx=0;entryDy=0;exitX=0;exitY=0.5;exitDx=0;exitDy=0;strokeWidth=2;strokeColor=#000000;" parent="1" source="455" target="456" edge="1">
                    <mxGeometry width="50" height="50" relative="1" as="geometry">
                        <mxPoint x="1139" y="-3090" as="sourcePoint"/>
                        <mxPoint x="889.2599999999852" y="-3026" as="targetPoint"/>
                    </mxGeometry>
                </mxCell>
                <mxCell id="462" value="&lt;span style=&quot;font-size: 19px;&quot;&gt;type&lt;/span&gt;" style="ellipse;whiteSpace=wrap;html=1;fontSize=30;fillColor=#e3c800;fontColor=#000000;strokeColor=#000000;strokeWidth=2;" parent="1" vertex="1">
                    <mxGeometry x="894.5" y="-3216" width="65" height="50" as="geometry"/>
                </mxCell>
                <mxCell id="463" value="" style="endArrow=none;html=1;fontSize=30;entryX=1;entryY=1;entryDx=0;entryDy=0;exitX=0;exitY=0;exitDx=0;exitDy=0;strokeWidth=2;strokeColor=#000000;" parent="1" source="455" target="462" edge="1">
                    <mxGeometry width="50" height="50" relative="1" as="geometry">
                        <mxPoint x="999" y="-3030" as="sourcePoint"/>
                        <mxPoint x="953.9999999999995" y="-3015" as="targetPoint"/>
                    </mxGeometry>
                </mxCell>
                <mxCell id="464" value="&lt;span style=&quot;font-size: 19px;&quot;&gt;topic&lt;/span&gt;" style="ellipse;whiteSpace=wrap;html=1;fontSize=30;fillColor=#e3c800;fontColor=#000000;strokeColor=#000000;strokeWidth=2;" parent="1" vertex="1">
                    <mxGeometry x="797.87" y="-3110" width="64.51" height="50" as="geometry"/>
                </mxCell>
                <mxCell id="465" value="" style="endArrow=none;html=1;fontSize=30;entryX=1;entryY=0.5;entryDx=0;entryDy=0;exitX=0;exitY=0.5;exitDx=0;exitDy=0;strokeWidth=2;strokeColor=#000000;" parent="1" source="455" target="464" edge="1">
                    <mxGeometry width="50" height="50" relative="1" as="geometry">
                        <mxPoint x="1319" y="-3040" as="sourcePoint"/>
                        <mxPoint x="889.1699999999996" y="-3350" as="targetPoint"/>
                    </mxGeometry>
                </mxCell>
                <mxCell id="466" value="&lt;span style=&quot;font-size: 19px;&quot;&gt;image&lt;/span&gt;" style="ellipse;whiteSpace=wrap;html=1;fontSize=30;fillColor=#e3c800;fontColor=#000000;strokeColor=#000000;strokeWidth=2;" parent="1" vertex="1">
                    <mxGeometry x="1147" y="-3214" width="70" height="50" as="geometry"/>
                </mxCell>
                <mxCell id="467" value="" style="endArrow=none;html=1;fontSize=30;entryX=0.5;entryY=1;entryDx=0;entryDy=0;strokeWidth=2;strokeColor=#000000;" parent="1" source="455" target="466" edge="1">
                    <mxGeometry width="50" height="50" relative="1" as="geometry">
                        <mxPoint x="1299" y="-3050" as="sourcePoint"/>
                        <mxPoint x="909.1699999999996" y="-3360" as="targetPoint"/>
                    </mxGeometry>
                </mxCell>
                <mxCell id="468" value="Option" style="shape=ext;double=1;rounded=0;whiteSpace=wrap;html=1;fontSize=30;fillColor=#60a917;fontColor=#ffffff;strokeColor=#000000;strokeWidth=2;" parent="1" vertex="1">
                    <mxGeometry x="1077.9999999999995" y="-2452" width="160" height="80" as="geometry"/>
                </mxCell>
                <mxCell id="469" value="" style="html=1;whiteSpace=wrap;aspect=fixed;shape=isoRectangle;fontSize=19;fillColor=#1ba1e2;fontColor=#ffffff;strokeColor=#000000;strokeWidth=2;" parent="1" vertex="1">
                    <mxGeometry x="1076.5400000000004" y="-2736" width="153.33" height="92" as="geometry"/>
                </mxCell>
                <mxCell id="470" value="has" style="html=1;whiteSpace=wrap;aspect=fixed;shape=isoRectangle;fontSize=19;fillColor=#1ba1e2;fontColor=#ffffff;strokeColor=#000000;strokeWidth=2;" parent="1" vertex="1">
                    <mxGeometry x="1086.5400000000004" y="-2729" width="133.33" height="80" as="geometry"/>
                </mxCell>
                <mxCell id="471" value="" style="endArrow=none;html=1;fontSize=30;entryX=0.5;entryY=1;entryDx=0;entryDy=0;strokeWidth=2;strokeColor=#000000;exitX=0.502;exitY=-0.01;exitDx=0;exitDy=0;exitPerimeter=0;" parent="1" source="470" target="455" edge="1">
                    <mxGeometry width="50" height="50" relative="1" as="geometry">
                        <mxPoint x="1039" y="-2920" as="sourcePoint"/>
                        <mxPoint x="1008.9999999999941" y="-3030" as="targetPoint"/>
                    </mxGeometry>
                </mxCell>
                <mxCell id="472" value="" style="endArrow=none;html=1;fontSize=30;entryX=0.502;entryY=1.008;entryDx=0;entryDy=0;strokeWidth=2;strokeColor=#000000;exitX=0.5;exitY=0;exitDx=0;exitDy=0;entryPerimeter=0;shape=link;" parent="1" source="468" target="470" edge="1">
                    <mxGeometry width="50" height="50" relative="1" as="geometry">
                        <mxPoint x="1109.1650399999999" y="-2689.504" as="sourcePoint"/>
                        <mxPoint x="1109" y="-2803" as="targetPoint"/>
                    </mxGeometry>
                </mxCell>
                <mxCell id="473" value="1" style="text;html=1;align=center;verticalAlign=middle;whiteSpace=wrap;rounded=0;fontSize=30;strokeWidth=2;strokeColor=none;fontColor=#000000;" parent="1" vertex="1">
                    <mxGeometry x="1149.9999999999995" y="-2766" width="60" height="30" as="geometry"/>
                </mxCell>
                <mxCell id="474" value="N" style="text;html=1;align=center;verticalAlign=middle;whiteSpace=wrap;rounded=0;fontSize=30;strokeWidth=2;strokeColor=none;fontColor=#000000;" parent="1" vertex="1">
                    <mxGeometry x="1155.9899999999998" y="-2637" width="60" height="30" as="geometry"/>
                </mxCell>
                <mxCell id="475" value="&lt;span style=&quot;font-size: 19px;&quot;&gt;option_id&lt;/span&gt;" style="ellipse;whiteSpace=wrap;html=1;fontSize=30;fillColor=#fa6800;fontColor=#000000;strokeColor=#000000;strokeWidth=2;fontStyle=4" parent="1" vertex="1">
                    <mxGeometry x="1113" y="-2302" width="90" height="50" as="geometry"/>
                </mxCell>
                <mxCell id="476" value="" style="endArrow=none;html=1;fontSize=30;entryX=0.5;entryY=0;entryDx=0;entryDy=0;exitX=0.5;exitY=1;exitDx=0;exitDy=0;strokeWidth=2;strokeColor=#000000;" parent="1" source="468" target="475" edge="1">
                    <mxGeometry width="50" height="50" relative="1" as="geometry">
                        <mxPoint x="1113" y="-2307" as="sourcePoint"/>
                        <mxPoint x="933.1699999999996" y="-2617" as="targetPoint"/>
                    </mxGeometry>
                </mxCell>
                <mxCell id="477" value="&lt;span style=&quot;font-size: 19px;&quot;&gt;text&lt;/span&gt;" style="ellipse;whiteSpace=wrap;html=1;fontSize=30;fillColor=#e3c800;fontColor=#000000;strokeColor=#000000;strokeWidth=2;" parent="1" vertex="1">
                    <mxGeometry x="1020.5" y="-2311" width="60" height="50" as="geometry"/>
                </mxCell>
                <mxCell id="478" value="" style="endArrow=none;html=1;fontSize=30;entryX=1;entryY=0;entryDx=0;entryDy=0;strokeWidth=2;strokeColor=#000000;exitX=0.5;exitY=1;exitDx=0;exitDy=0;" parent="1" source="468" target="477" edge="1">
                    <mxGeometry width="50" height="50" relative="1" as="geometry">
                        <mxPoint x="1227.13" y="-2212" as="sourcePoint"/>
                        <mxPoint x="837.2999999999997" y="-2522" as="targetPoint"/>
                    </mxGeometry>
                </mxCell>
                <mxCell id="479" value="&lt;span style=&quot;font-size: 19px;&quot;&gt;image&lt;/span&gt;" style="ellipse;whiteSpace=wrap;html=1;fontSize=30;fillColor=#e3c800;fontColor=#000000;strokeColor=#000000;strokeWidth=2;" parent="1" vertex="1">
                    <mxGeometry x="949.87" y="-2348" width="70" height="50" as="geometry"/>
                </mxCell>
                <mxCell id="480" value="" style="endArrow=none;html=1;fontSize=30;entryX=1;entryY=0;entryDx=0;entryDy=0;strokeWidth=2;strokeColor=#000000;exitX=0;exitY=1;exitDx=0;exitDy=0;" parent="1" source="468" target="479" edge="1">
                    <mxGeometry width="50" height="50" relative="1" as="geometry">
                        <mxPoint x="1082" y="-2363" as="sourcePoint"/>
                        <mxPoint x="947.2999999999997" y="-2492" as="targetPoint"/>
                    </mxGeometry>
                </mxCell>
                <mxCell id="481" value="&lt;span style=&quot;font-size: 19px;&quot;&gt;is_&lt;/span&gt;&lt;span style=&quot;font-size: 19px;&quot;&gt;correct_&lt;/span&gt;&lt;span style=&quot;font-size: 19px;&quot;&gt;answer&lt;/span&gt;" style="ellipse;whiteSpace=wrap;html=1;fontSize=30;fillColor=#e3c800;fontColor=#000000;strokeColor=#000000;strokeWidth=2;" parent="1" vertex="1">
                    <mxGeometry x="1210" y="-2321" width="170" height="50" as="geometry"/>
                </mxCell>
                <mxCell id="482" value="" style="endArrow=none;html=1;fontSize=30;entryX=0.5;entryY=0;entryDx=0;entryDy=0;strokeWidth=2;strokeColor=#000000;exitX=1;exitY=1;exitDx=0;exitDy=0;" parent="1" source="468" target="481" edge="1">
                    <mxGeometry width="50" height="50" relative="1" as="geometry">
                        <mxPoint x="927.9999999999995" y="-2372" as="sourcePoint"/>
                        <mxPoint x="637.2999999999997" y="-2492" as="targetPoint"/>
                    </mxGeometry>
                </mxCell>
                <mxCell id="483" value="&lt;span style=&quot;font-size: 19px;&quot;&gt;points&lt;/span&gt;" style="ellipse;whiteSpace=wrap;html=1;fontSize=30;fillColor=#e3c800;fontColor=#000000;strokeColor=#000000;strokeWidth=2;" parent="1" vertex="1">
                    <mxGeometry x="1223.66" y="-3186" width="70" height="50" as="geometry"/>
                </mxCell>
                <mxCell id="484" value="" style="endArrow=none;html=1;fontSize=30;entryX=0;entryY=1;entryDx=0;entryDy=0;strokeWidth=2;strokeColor=#000000;exitX=0.75;exitY=0;exitDx=0;exitDy=0;" parent="1" source="455" target="483" edge="1">
                    <mxGeometry width="50" height="50" relative="1" as="geometry">
                        <mxPoint x="1216" y="-3117" as="sourcePoint"/>
                        <mxPoint x="543.2999999999997" y="-3140" as="targetPoint"/>
                    </mxGeometry>
                </mxCell>
                <mxCell id="485" value="Exam" style="shape=ext;double=1;rounded=0;whiteSpace=wrap;html=1;fontSize=30;fillColor=#60a917;fontColor=#ffffff;strokeColor=#000000;strokeWidth=2;" parent="1" vertex="1">
                    <mxGeometry x="1979.9999999999995" y="-3084" width="160" height="80" as="geometry"/>
                </mxCell>
                <mxCell id="486" value="" style="html=1;whiteSpace=wrap;aspect=fixed;shape=isoRectangle;fontSize=19;fillColor=#1ba1e2;fontColor=#ffffff;strokeColor=#000000;strokeWidth=2;" parent="1" vertex="1">
                    <mxGeometry x="1480.0000000000005" y="-3096" width="153.33" height="92" as="geometry"/>
                </mxCell>
                <mxCell id="487" value="has" style="html=1;whiteSpace=wrap;aspect=fixed;shape=isoRectangle;fontSize=19;fillColor=#1ba1e2;fontColor=#ffffff;strokeColor=#000000;strokeWidth=2;" parent="1" vertex="1">
                    <mxGeometry x="1490.0000000000005" y="-3089" width="133.33" height="80" as="geometry"/>
                </mxCell>
                <mxCell id="488" value="" style="endArrow=none;html=1;fontSize=30;entryX=0;entryY=0.5;entryDx=0;entryDy=0;strokeWidth=2;strokeColor=#000000;exitX=0.978;exitY=0.528;exitDx=0;exitDy=0;exitPerimeter=0;shape=link;" parent="1" source="486" target="485" edge="1">
                    <mxGeometry width="50" height="50" relative="1" as="geometry">
                        <mxPoint x="1880.1650399999999" y="-2916.504" as="sourcePoint"/>
                        <mxPoint x="1880" y="-3030" as="targetPoint"/>
                    </mxGeometry>
                </mxCell>
                <mxCell id="489" value="" style="endArrow=none;html=1;fontSize=30;strokeWidth=2;strokeColor=#000000;exitX=1;exitY=0.5;exitDx=0;exitDy=0;entryX=0.035;entryY=0.493;entryDx=0;entryDy=0;entryPerimeter=0;" parent="1" source="455" target="486" edge="1">
                    <mxGeometry width="50" height="50" relative="1" as="geometry">
                        <mxPoint x="946.9967400000005" y="-2978.424" as="sourcePoint"/>
                        <mxPoint x="1096.5931900000005" y="-3045.448" as="targetPoint"/>
                    </mxGeometry>
                </mxCell>
                <mxCell id="490" value="M" style="text;html=1;align=center;verticalAlign=middle;whiteSpace=wrap;rounded=0;fontSize=30;strokeWidth=2;strokeColor=none;fontColor=#000000;" parent="1" vertex="1">
                    <mxGeometry x="1620.9999999999995" y="-3033" width="60" height="30" as="geometry"/>
                </mxCell>
                <mxCell id="491" value="N" style="text;html=1;align=center;verticalAlign=middle;whiteSpace=wrap;rounded=0;fontSize=30;strokeWidth=2;strokeColor=none;fontColor=#000000;" parent="1" vertex="1">
                    <mxGeometry x="1415.9999999999993" y="-3045" width="60" height="30" as="geometry"/>
                </mxCell>
                <mxCell id="492" value="&lt;span style=&quot;font-size: 19px;&quot;&gt;&lt;u&gt;exam_id&lt;/u&gt;&lt;/span&gt;" style="ellipse;whiteSpace=wrap;html=1;fontSize=30;fillColor=#fa6800;fontColor=#000000;strokeColor=#000000;strokeWidth=2;" parent="1" vertex="1">
                    <mxGeometry x="1850.87" y="-3266" width="89.13" height="50" as="geometry"/>
                </mxCell>
                <mxCell id="493" value="" style="endArrow=none;html=1;fontSize=30;entryX=1;entryY=1;entryDx=0;entryDy=0;exitX=0.25;exitY=0;exitDx=0;exitDy=0;strokeWidth=2;strokeColor=#000000;" parent="1" source="485" target="492" edge="1">
                    <mxGeometry width="50" height="50" relative="1" as="geometry">
                        <mxPoint x="2066.13" y="-3095" as="sourcePoint"/>
                        <mxPoint x="2141.1299999999997" y="-3165" as="targetPoint"/>
                    </mxGeometry>
                </mxCell>
                <mxCell id="494" value="&lt;span style=&quot;font-size: 19px;&quot;&gt;exam_date&lt;/span&gt;" style="ellipse;whiteSpace=wrap;html=1;fontSize=30;fillColor=#e3c800;fontColor=#000000;strokeColor=#000000;strokeWidth=2;" parent="1" vertex="1">
                    <mxGeometry x="1804.57" y="-3210" width="115.43" height="50" as="geometry"/>
                </mxCell>
                <mxCell id="495" value="" style="endArrow=none;html=1;fontSize=30;entryX=0.5;entryY=1;entryDx=0;entryDy=0;strokeWidth=2;strokeColor=#000000;exitX=0.25;exitY=0;exitDx=0;exitDy=0;" parent="1" source="485" target="494" edge="1">
                    <mxGeometry width="50" height="50" relative="1" as="geometry">
                        <mxPoint x="1835.43" y="-3140" as="sourcePoint"/>
                        <mxPoint x="1515.5999999999997" y="-3420" as="targetPoint"/>
                    </mxGeometry>
                </mxCell>
                <mxCell id="496" value="&lt;span style=&quot;font-size: 19px;&quot;&gt;start_time&lt;/span&gt;" style="ellipse;whiteSpace=wrap;html=1;fontSize=30;fillColor=#e3c800;fontColor=#000000;strokeColor=#000000;strokeWidth=2;" parent="1" vertex="1">
                    <mxGeometry x="1910.47" y="-3312" width="104" height="50" as="geometry"/>
                </mxCell>
                <mxCell id="497" value="" style="endArrow=none;html=1;fontSize=30;entryX=0.5;entryY=1;entryDx=0;entryDy=0;strokeWidth=2;strokeColor=#000000;exitX=0.25;exitY=0;exitDx=0;exitDy=0;" parent="1" source="485" target="496" edge="1">
                    <mxGeometry width="50" height="50" relative="1" as="geometry">
                        <mxPoint x="1929.9999999999995" y="-3044" as="sourcePoint"/>
                        <mxPoint x="1425.5999999999997" y="-3380" as="targetPoint"/>
                    </mxGeometry>
                </mxCell>
                <mxCell id="498" value="&lt;span style=&quot;font-size: 19px;&quot;&gt;exam_name&lt;/span&gt;" style="ellipse;whiteSpace=wrap;html=1;fontSize=30;fillColor=#e3c800;fontColor=#000000;strokeColor=#000000;strokeWidth=2;" parent="1" vertex="1">
                    <mxGeometry x="1764.8999999999999" y="-3146" width="115.43" height="50" as="geometry"/>
                </mxCell>
                <mxCell id="499" value="" style="endArrow=none;html=1;fontSize=30;entryX=0.5;entryY=1;entryDx=0;entryDy=0;strokeWidth=2;strokeColor=#000000;exitX=0;exitY=0;exitDx=0;exitDy=0;" parent="1" source="485" target="498" edge="1">
                    <mxGeometry width="50" height="50" relative="1" as="geometry">
                        <mxPoint x="1949.9999999999995" y="-3034" as="sourcePoint"/>
                        <mxPoint x="1445.5999999999997" y="-3370" as="targetPoint"/>
                    </mxGeometry>
                </mxCell>
                <mxCell id="500" value="&lt;span style=&quot;font-size: 19px;&quot;&gt;duration&lt;/span&gt;" style="ellipse;whiteSpace=wrap;html=1;fontSize=30;fillColor=#e3c800;fontColor=#000000;strokeColor=#000000;strokeWidth=2;" parent="1" vertex="1">
                    <mxGeometry x="1782.61" y="-3033.5" width="80" height="50" as="geometry"/>
                </mxCell>
                <mxCell id="501" value="" style="endArrow=none;html=1;fontSize=30;entryX=1;entryY=0.5;entryDx=0;entryDy=0;strokeWidth=2;strokeColor=#000000;exitX=0;exitY=1;exitDx=0;exitDy=0;" parent="1" source="485" target="500" edge="1">
                    <mxGeometry width="50" height="50" relative="1" as="geometry">
                        <mxPoint x="2159.9999999999995" y="-3001" as="sourcePoint"/>
                        <mxPoint x="1545.5999999999997" y="-3247" as="targetPoint"/>
                    </mxGeometry>
                </mxCell>
                <mxCell id="502" value="&lt;span style=&quot;font-size: 19px;&quot;&gt;creation_date&lt;/span&gt;" style="ellipse;whiteSpace=wrap;html=1;fontSize=30;fillColor=#e3c800;fontColor=#000000;strokeColor=#000000;strokeWidth=2;" parent="1" vertex="1">
                    <mxGeometry x="903" y="-2935" width="130" height="50" as="geometry"/>
                </mxCell>
                <mxCell id="503" value="" style="endArrow=none;html=1;fontSize=30;entryX=1;entryY=0;entryDx=0;entryDy=0;strokeWidth=2;strokeColor=#000000;exitX=0;exitY=1;exitDx=0;exitDy=0;" parent="1" source="455" target="502" edge="1">
                    <mxGeometry width="50" height="50" relative="1" as="geometry">
                        <mxPoint x="1260.33" y="-3024.5" as="sourcePoint"/>
                        <mxPoint x="614.6299999999998" y="-3164.5" as="targetPoint"/>
                    </mxGeometry>
                </mxCell>
                <mxCell id="504" value="&lt;span style=&quot;font-size: 19px;&quot;&gt;creation_time&lt;/span&gt;" style="ellipse;whiteSpace=wrap;html=1;fontSize=30;fillColor=#e3c800;fontColor=#000000;strokeColor=#000000;strokeWidth=2;" parent="1" vertex="1">
                    <mxGeometry x="1005.0000000000001" y="-2885" width="130" height="50" as="geometry"/>
                </mxCell>
                <mxCell id="505" value="" style="endArrow=none;html=1;fontSize=30;entryX=0.5;entryY=0;entryDx=0;entryDy=0;strokeWidth=2;strokeColor=#000000;exitX=0;exitY=1;exitDx=0;exitDy=0;" parent="1" source="455" target="504" edge="1">
                    <mxGeometry width="50" height="50" relative="1" as="geometry">
                        <mxPoint x="1254" y="-3050" as="sourcePoint"/>
                        <mxPoint x="1289" y="-3002" as="targetPoint"/>
                    </mxGeometry>
                </mxCell>
                <mxCell id="506" value="&lt;span style=&quot;font-size: 19px;&quot;&gt;creation_date&lt;/span&gt;" style="ellipse;whiteSpace=wrap;html=1;fontSize=30;fillColor=#e3c800;fontColor=#000000;strokeColor=#000000;strokeWidth=2;" parent="1" vertex="1">
                    <mxGeometry x="2095" y="-3298" width="140" height="50" as="geometry"/>
                </mxCell>
                <mxCell id="507" value="" style="endArrow=none;html=1;fontSize=30;entryX=0;entryY=1;entryDx=0;entryDy=0;strokeWidth=2;strokeColor=#000000;exitX=0.75;exitY=0;exitDx=0;exitDy=0;" parent="1" source="485" target="506" edge="1">
                    <mxGeometry width="50" height="50" relative="1" as="geometry">
                        <mxPoint x="2139.9999999999995" y="-2961" as="sourcePoint"/>
                        <mxPoint x="1545.5999999999997" y="-3164" as="targetPoint"/>
                    </mxGeometry>
                </mxCell>
                <mxCell id="508" value="&lt;span style=&quot;font-size: 19px;&quot;&gt;creation_time&lt;/span&gt;" style="ellipse;whiteSpace=wrap;html=1;fontSize=30;fillColor=#e3c800;fontColor=#000000;strokeColor=#000000;strokeWidth=2;" parent="1" vertex="1">
                    <mxGeometry x="2171" y="-3248" width="140" height="50" as="geometry"/>
                </mxCell>
                <mxCell id="509" value="" style="endArrow=none;html=1;fontSize=30;entryX=0;entryY=0.5;entryDx=0;entryDy=0;strokeWidth=2;strokeColor=#000000;exitX=0.75;exitY=0;exitDx=0;exitDy=0;" parent="1" source="485" target="508" edge="1">
                    <mxGeometry width="50" height="50" relative="1" as="geometry">
                        <mxPoint x="2104.5599999999995" y="-2943" as="sourcePoint"/>
                        <mxPoint x="1510.1599999999996" y="-3103" as="targetPoint"/>
                    </mxGeometry>
                </mxCell>
                <mxCell id="510" value="&lt;span style=&quot;font-size: 19px;&quot;&gt;passing_score&lt;/span&gt;" style="ellipse;whiteSpace=wrap;html=1;fontSize=30;fillColor=#e3c800;fontColor=#000000;strokeColor=#000000;strokeWidth=2;" parent="1" vertex="1">
                    <mxGeometry x="1685" y="-2981" width="140" height="50" as="geometry"/>
                </mxCell>
                <mxCell id="511" value="" style="endArrow=none;html=1;fontSize=30;entryX=1;entryY=0;entryDx=0;entryDy=0;strokeWidth=2;strokeColor=#000000;exitX=0;exitY=1;exitDx=0;exitDy=0;" parent="1" source="485" target="510" edge="1">
                    <mxGeometry width="50" height="50" relative="1" as="geometry">
                        <mxPoint x="2149.9999999999995" y="-2944" as="sourcePoint"/>
                        <mxPoint x="1520.1599999999996" y="-3043" as="targetPoint"/>
                    </mxGeometry>
                </mxCell>
                <mxCell id="512" value="&lt;font style=&quot;font-size: 30px;&quot;&gt;User&lt;/font&gt;" style="rounded=0;whiteSpace=wrap;html=1;fontSize=30;fontStyle=1;fillColor=#008a00;fontColor=#ffffff;strokeColor=#000000;strokeWidth=2;" parent="1" vertex="1">
                    <mxGeometry x="2655.33" y="-2339" width="160" height="80" as="geometry"/>
                </mxCell>
                <mxCell id="513" value="registration_date" style="ellipse;whiteSpace=wrap;html=1;fontSize=20;fillColor=#e3c800;fontColor=#000000;strokeColor=#000000;strokeWidth=2;" parent="1" vertex="1">
                    <mxGeometry x="2922" y="-2429.9999999999995" width="180" height="60" as="geometry"/>
                </mxCell>
                <mxCell id="514" value="" style="endArrow=none;html=1;fontSize=20;entryX=1;entryY=0;entryDx=0;entryDy=0;exitX=0;exitY=0.5;exitDx=0;exitDy=0;strokeWidth=2;strokeColor=#000000;" parent="1" source="513" target="512" edge="1">
                    <mxGeometry width="50" height="50" relative="1" as="geometry">
                        <mxPoint x="3115.33" y="-1711.5" as="sourcePoint"/>
                        <mxPoint x="2655.33" y="-2037" as="targetPoint"/>
                    </mxGeometry>
                </mxCell>
                <mxCell id="515" value="first_name" style="ellipse;whiteSpace=wrap;html=1;fontSize=20;fillColor=#e3c800;fontColor=#000000;strokeColor=#000000;strokeWidth=2;" parent="1" vertex="1">
                    <mxGeometry x="2431" y="-2221" width="120" height="60" as="geometry"/>
                </mxCell>
                <mxCell id="516" value="last_name" style="ellipse;whiteSpace=wrap;html=1;fontSize=20;fillColor=#e3c800;fontColor=#000000;strokeColor=#000000;strokeWidth=2;" parent="1" vertex="1">
                    <mxGeometry x="2491.93" y="-2166" width="120" height="60" as="geometry"/>
                </mxCell>
                <mxCell id="517" value="" style="endArrow=none;html=1;fontSize=20;strokeWidth=2;strokeColor=#000000;entryX=0.5;entryY=0;entryDx=0;entryDy=0;exitX=0;exitY=1;exitDx=0;exitDy=0;" parent="1" source="512" target="515" edge="1">
                    <mxGeometry width="50" height="50" relative="1" as="geometry">
                        <mxPoint x="2762" y="-2254" as="sourcePoint"/>
                        <mxPoint x="2948" y="-2197" as="targetPoint"/>
                    </mxGeometry>
                </mxCell>
                <mxCell id="518" value="" style="endArrow=none;html=1;fontSize=20;entryX=0.5;entryY=0;entryDx=0;entryDy=0;exitX=0.25;exitY=1;exitDx=0;exitDy=0;strokeWidth=2;strokeColor=#000000;" parent="1" source="512" target="516" edge="1">
                    <mxGeometry width="50" height="50" relative="1" as="geometry">
                        <mxPoint x="2735.33" y="-2037" as="sourcePoint"/>
                        <mxPoint x="2315.33" y="-1786.5" as="targetPoint"/>
                    </mxGeometry>
                </mxCell>
                <mxCell id="519" value="hashed_password" style="ellipse;whiteSpace=wrap;html=1;fontSize=20;fillColor=#e3c800;fontColor=#000000;strokeColor=#000000;strokeWidth=2;" parent="1" vertex="1">
                    <mxGeometry x="2537.67" y="-2106" width="191" height="60" as="geometry"/>
                </mxCell>
                <mxCell id="520" value="user_name" style="ellipse;whiteSpace=wrap;html=1;fontSize=20;fontStyle=4;fillColor=#fa6800;fontColor=#000000;strokeColor=#000000;strokeWidth=2;" parent="1" vertex="1">
                    <mxGeometry x="2751" y="-2104.2999999999997" width="110" height="44.2" as="geometry"/>
                </mxCell>
                <mxCell id="521" value="&lt;span style=&quot;font-size: 19px;&quot;&gt;role_name&lt;/span&gt;" style="ellipse;whiteSpace=wrap;html=1;fontSize=30;fillColor=#fa6800;fontColor=#000000;strokeColor=#000000;strokeWidth=2;fontStyle=4" parent="1" vertex="1">
                    <mxGeometry x="2021.9900000000007" y="-1762" width="101.34" height="50" as="geometry"/>
                </mxCell>
                <mxCell id="522" value="&lt;span style=&quot;font-size: 19px;&quot;&gt;creation_date&lt;/span&gt;" style="ellipse;whiteSpace=wrap;html=1;fontSize=30;fillColor=#e3c800;fontColor=#000000;strokeColor=#000000;strokeWidth=2;" parent="1" vertex="1">
                    <mxGeometry x="2173.34" y="-1765" width="130" height="50" as="geometry"/>
                </mxCell>
                <mxCell id="523" value="Role" style="shape=ext;double=1;rounded=0;whiteSpace=wrap;html=1;fontSize=30;fillColor=#60a917;fontColor=#ffffff;strokeColor=#000000;strokeWidth=2;" parent="1" vertex="1">
                    <mxGeometry x="1992.6599999999996" y="-1884.8000000000002" width="160" height="80" as="geometry"/>
                </mxCell>
                <mxCell id="524" value="" style="endArrow=none;html=1;fontSize=20;entryX=0.5;entryY=0;entryDx=0;entryDy=0;exitX=1;exitY=1;exitDx=0;exitDy=0;startArrow=none;strokeWidth=2;strokeColor=#000000;" parent="1" source="523" edge="1">
                    <mxGeometry width="50" height="50" relative="1" as="geometry">
                        <mxPoint x="2273.49" y="-1831.0500000000002" as="sourcePoint"/>
                        <mxPoint x="2203.34" y="-1765" as="targetPoint"/>
                    </mxGeometry>
                </mxCell>
                <mxCell id="525" value="" style="endArrow=none;html=1;fontSize=20;startArrow=none;entryX=0.5;entryY=1;entryDx=0;entryDy=0;strokeWidth=2;strokeColor=#000000;" parent="1" source="521" target="523" edge="1">
                    <mxGeometry width="50" height="50" relative="1" as="geometry">
                        <mxPoint x="1867.6599999999996" y="-1854.8000000000002" as="sourcePoint"/>
                        <mxPoint x="1992.6599999999996" y="-1924.8000000000002" as="targetPoint"/>
                    </mxGeometry>
                </mxCell>
                <mxCell id="528" value="Permission" style="shape=ext;double=1;rounded=0;whiteSpace=wrap;html=1;fontSize=30;fillColor=#60a917;fontColor=#ffffff;strokeColor=#000000;strokeWidth=2;" parent="1" vertex="1">
                    <mxGeometry x="1196.9999999999995" y="-1887.3000000000002" width="160" height="80" as="geometry"/>
                </mxCell>
                <mxCell id="529" value="&lt;span style=&quot;font-size: 19px;&quot;&gt;&lt;u&gt;permission_name&lt;/u&gt;&lt;/span&gt;" style="ellipse;whiteSpace=wrap;html=1;fontSize=30;fillColor=#fa6800;fontColor=#000000;strokeColor=#000000;strokeWidth=2;" parent="1" vertex="1">
                    <mxGeometry x="922" y="-1878.9" width="176.51" height="50" as="geometry"/>
                </mxCell>
                <mxCell id="530" value="" style="endArrow=none;html=1;fontSize=30;entryX=0;entryY=0.5;entryDx=0;entryDy=0;exitX=1;exitY=0.5;exitDx=0;exitDy=0;strokeWidth=2;strokeColor=#000000;" parent="1" source="529" target="528" edge="1">
                    <mxGeometry width="50" height="50" relative="1" as="geometry">
                        <mxPoint x="1111.5100000000023" y="-1848.4" as="sourcePoint"/>
                        <mxPoint x="1147.1699999999996" y="-1881.5" as="targetPoint"/>
                    </mxGeometry>
                </mxCell>
                <mxCell id="531" value="&lt;span style=&quot;font-size: 19px;&quot;&gt;creation_date&lt;/span&gt;" style="ellipse;whiteSpace=wrap;html=1;fontSize=30;fillColor=#e3c800;fontColor=#000000;strokeColor=#000000;strokeWidth=2;" parent="1" vertex="1">
                    <mxGeometry x="974.9999999999997" y="-1785.6" width="130" height="50" as="geometry"/>
                </mxCell>
                <mxCell id="532" value="" style="endArrow=none;html=1;fontSize=30;entryX=1;entryY=0.5;entryDx=0;entryDy=0;exitX=0;exitY=1;exitDx=0;exitDy=0;strokeWidth=2;strokeColor=#000000;" parent="1" source="528" target="531" edge="1">
                    <mxGeometry width="50" height="50" relative="1" as="geometry">
                        <mxPoint x="1205.9999999999995" y="-1877.3000000000002" as="sourcePoint"/>
                        <mxPoint x="1064.9999999999998" y="-1741.4999999999995" as="targetPoint"/>
                    </mxGeometry>
                </mxCell>
                <mxCell id="533" value="M" style="text;html=1;align=center;verticalAlign=middle;whiteSpace=wrap;rounded=0;fontSize=30;strokeWidth=2;strokeColor=none;fontColor=#000000;" parent="1" vertex="1">
                    <mxGeometry x="2723.0799999999995" y="-1937" width="60" height="30" as="geometry"/>
                </mxCell>
                <mxCell id="534" value="N" style="text;html=1;align=center;verticalAlign=middle;whiteSpace=wrap;rounded=0;fontSize=30;strokeWidth=2;strokeColor=none;fontColor=#000000;" parent="1" vertex="1">
                    <mxGeometry x="1535.9999999999995" y="-1878.9" width="60" height="30" as="geometry"/>
                </mxCell>
                <mxCell id="536" value="" style="html=1;whiteSpace=wrap;aspect=fixed;shape=isoRectangle;fontSize=19;fillColor=#1ba1e2;fontColor=#ffffff;strokeColor=#000000;strokeWidth=2;" parent="1" vertex="1">
                    <mxGeometry x="2655.3300000000004" y="-1899.7" width="153.33" height="92" as="geometry"/>
                </mxCell>
                <mxCell id="537" value="has" style="html=1;whiteSpace=wrap;aspect=fixed;shape=isoRectangle;fontSize=19;fillColor=#1ba1e2;fontColor=#ffffff;strokeColor=#000000;strokeWidth=2;" parent="1" vertex="1">
                    <mxGeometry x="2666.3300000000004" y="-1893.8999999999999" width="133.33" height="80" as="geometry"/>
                </mxCell>
                <mxCell id="538" value="" style="endArrow=none;html=1;fontSize=30;exitX=0.498;exitY=0.068;exitDx=0;exitDy=0;exitPerimeter=0;entryX=0.5;entryY=1;entryDx=0;entryDy=0;strokeWidth=2;strokeColor=#000000;" parent="1" source="537" target="512" edge="1">
                    <mxGeometry width="50" height="50" relative="1" as="geometry">
                        <mxPoint x="2594.4400000000005" y="-2552.5" as="sourcePoint"/>
                        <mxPoint x="2635.6499999999996" y="-2306.5" as="targetPoint"/>
                    </mxGeometry>
                </mxCell>
                <mxCell id="539" value="" style="endArrow=none;html=1;fontSize=20;exitX=0.5;exitY=1;exitDx=0;exitDy=0;entryX=0.5;entryY=0;entryDx=0;entryDy=0;strokeWidth=2;strokeColor=#000000;" parent="1" source="512" target="520" edge="1">
                    <mxGeometry width="50" height="50" relative="1" as="geometry">
                        <mxPoint x="2815.33" y="-2037" as="sourcePoint"/>
                        <mxPoint x="2737" y="-2087" as="targetPoint"/>
                    </mxGeometry>
                </mxCell>
                <mxCell id="540" value="" style="endArrow=none;html=1;fontSize=20;exitX=0.25;exitY=1;exitDx=0;exitDy=0;entryX=0.5;entryY=0;entryDx=0;entryDy=0;strokeWidth=2;strokeColor=#000000;" parent="1" source="512" target="519" edge="1">
                    <mxGeometry width="50" height="50" relative="1" as="geometry">
                        <mxPoint x="2815.33" y="-2037" as="sourcePoint"/>
                        <mxPoint x="2675.33" y="-2146.5" as="targetPoint"/>
                    </mxGeometry>
                </mxCell>
                <mxCell id="541" value="M" style="text;html=1;align=center;verticalAlign=middle;whiteSpace=wrap;rounded=0;fontSize=30;strokeWidth=2;strokeColor=none;fontColor=#000000;" parent="1" vertex="1">
                    <mxGeometry x="1722.6100000000001" y="-1881.3000000000002" width="60" height="30" as="geometry"/>
                </mxCell>
                <mxCell id="542" value="registration_time" style="ellipse;whiteSpace=wrap;html=1;fontSize=20;fillColor=#e3c800;fontColor=#000000;strokeColor=#000000;strokeWidth=2;" parent="1" vertex="1">
                    <mxGeometry x="2922" y="-2196.9999999999995" width="180" height="60" as="geometry"/>
                </mxCell>
                <mxCell id="543" value="&lt;span style=&quot;font-size: 19px;&quot;&gt;permission_assignment_date&lt;/span&gt;" style="ellipse;whiteSpace=wrap;html=1;fontSize=30;fillColor=#e3c800;fontColor=#000000;strokeColor=#000000;strokeWidth=2;" parent="1" vertex="1">
                    <mxGeometry x="1522.57" y="-2018" width="282" height="50" as="geometry"/>
                </mxCell>
                <mxCell id="544" value="" style="endArrow=none;html=1;fontSize=20;entryX=0.5;entryY=1;entryDx=0;entryDy=0;startArrow=none;strokeWidth=2;strokeColor=#000000;exitX=0.477;exitY=-0.005;exitDx=0;exitDy=0;exitPerimeter=0;" parent="1" source="640" target="543" edge="1">
                    <mxGeometry width="50" height="50" relative="1" as="geometry">
                        <mxPoint x="1327.5" y="-1807.6999999999998" as="sourcePoint"/>
                        <mxPoint x="1057.6025612611156" y="-1996.5418227596479" as="targetPoint"/>
                    </mxGeometry>
                </mxCell>
                <mxCell id="545" value="&lt;span style=&quot;font-size: 19px;&quot;&gt;permission_assignment_time&lt;/span&gt;" style="ellipse;whiteSpace=wrap;html=1;fontSize=30;fillColor=#e3c800;fontColor=#000000;strokeColor=#000000;strokeWidth=2;" parent="1" vertex="1">
                    <mxGeometry x="1519.06" y="-1738" width="282" height="50" as="geometry"/>
                </mxCell>
                <mxCell id="546" value="" style="endArrow=none;html=1;fontSize=20;entryX=0.5;entryY=0;entryDx=0;entryDy=0;startArrow=none;strokeWidth=2;strokeColor=#000000;exitX=0.499;exitY=1.032;exitDx=0;exitDy=0;exitPerimeter=0;" parent="1" source="640" target="545" edge="1">
                    <mxGeometry width="50" height="50" relative="1" as="geometry">
                        <mxPoint x="1450.5" y="-1807.6999999999998" as="sourcePoint"/>
                        <mxPoint x="1543" y="-1726" as="targetPoint"/>
                    </mxGeometry>
                </mxCell>
                <mxCell id="547" value="&lt;span style=&quot;font-size: 19px;&quot;&gt;creation_time&lt;/span&gt;" style="ellipse;whiteSpace=wrap;html=1;fontSize=30;fillColor=#e3c800;fontColor=#000000;strokeColor=#000000;strokeWidth=2;" parent="1" vertex="1">
                    <mxGeometry x="981.5099999999996" y="-1962" width="130" height="50" as="geometry"/>
                </mxCell>
                <mxCell id="548" value="" style="endArrow=none;html=1;fontSize=30;entryX=1;entryY=0.5;entryDx=0;entryDy=0;exitX=0;exitY=0;exitDx=0;exitDy=0;strokeWidth=2;strokeColor=#000000;" parent="1" source="528" target="547" edge="1">
                    <mxGeometry width="50" height="50" relative="1" as="geometry">
                        <mxPoint x="1119.9999999999995" y="-1866.5" as="sourcePoint"/>
                        <mxPoint x="1064.9999999999998" y="-1941.3000000000002" as="targetPoint"/>
                    </mxGeometry>
                </mxCell>
                <mxCell id="549" value="&lt;span style=&quot;font-size: 19px;&quot;&gt;creation_time&lt;/span&gt;" style="ellipse;whiteSpace=wrap;html=1;fontSize=30;fillColor=#e3c800;fontColor=#000000;strokeColor=#000000;strokeWidth=2;" parent="1" vertex="1">
                    <mxGeometry x="1853" y="-1765" width="130" height="50" as="geometry"/>
                </mxCell>
                <mxCell id="550" value="" style="endArrow=none;html=1;fontSize=20;entryX=0.5;entryY=0;entryDx=0;entryDy=0;exitX=0;exitY=1;exitDx=0;exitDy=0;startArrow=none;strokeWidth=2;strokeColor=#000000;" parent="1" source="523" target="549" edge="1">
                    <mxGeometry width="50" height="50" relative="1" as="geometry">
                        <mxPoint x="1766.9999999999998" y="-1871" as="sourcePoint"/>
                        <mxPoint x="1837.6025612611156" y="-1964.7418227596477" as="targetPoint"/>
                    </mxGeometry>
                </mxCell>
                <mxCell id="551" value="" style="endArrow=none;html=1;fontSize=20;entryX=0.507;entryY=1.004;entryDx=0;entryDy=0;exitX=0.5;exitY=0;exitDx=0;exitDy=0;startArrow=none;strokeWidth=2;strokeColor=#000000;entryPerimeter=0;" parent="1" source="627" target="537" edge="1">
                    <mxGeometry width="50" height="50" relative="1" as="geometry">
                        <mxPoint x="2838.52" y="-1729" as="sourcePoint"/>
                        <mxPoint x="2804.34" y="-1807.6999999999998" as="targetPoint"/>
                    </mxGeometry>
                </mxCell>
                <mxCell id="552" value="logout_date" style="ellipse;whiteSpace=wrap;html=1;fontSize=20;fillColor=#e3c800;fontColor=#000000;strokeColor=#000000;strokeWidth=2;" parent="1" vertex="1">
                    <mxGeometry x="3521.2999999999993" y="-2221" width="120" height="60" as="geometry"/>
                </mxCell>
                <mxCell id="553" value="" style="endArrow=none;html=1;fontSize=20;entryX=0.5;entryY=0;entryDx=0;entryDy=0;exitX=0.5;exitY=1;exitDx=0;exitDy=0;strokeWidth=2;strokeColor=#000000;" parent="1" source="558" target="552" edge="1">
                    <mxGeometry width="50" height="50" relative="1" as="geometry">
                        <mxPoint x="3499.2199999999993" y="-2327.6" as="sourcePoint"/>
                        <mxPoint x="3039.2199999999993" y="-2132.1" as="targetPoint"/>
                    </mxGeometry>
                </mxCell>
                <mxCell id="554" value="login_date" style="ellipse;whiteSpace=wrap;html=1;fontSize=20;fillColor=#e3c800;fontColor=#000000;strokeColor=#000000;strokeWidth=2;fontStyle=0" parent="1" vertex="1">
                    <mxGeometry x="3316.54" y="-2441" width="112.76" height="60" as="geometry"/>
                </mxCell>
                <mxCell id="557" value="" style="endArrow=none;html=1;fontSize=20;exitX=0.5;exitY=0;exitDx=0;exitDy=0;entryX=0.5;entryY=1;entryDx=0;entryDy=0;strokeWidth=2;strokeColor=#000000;" parent="1" source="558" target="554" edge="1">
                    <mxGeometry width="50" height="50" relative="1" as="geometry">
                        <mxPoint x="3539.2199999999993" y="-2327.6" as="sourcePoint"/>
                        <mxPoint x="3439.2199999999993" y="-2437.1" as="targetPoint"/>
                    </mxGeometry>
                </mxCell>
                <mxCell id="558" value="Login" style="shape=ext;double=1;rounded=0;whiteSpace=wrap;html=1;fontSize=30;fillColor=#60a917;fontColor=#ffffff;strokeColor=#000000;strokeWidth=2;" parent="1" vertex="1">
                    <mxGeometry x="3389.6499999999996" y="-2333.8" width="187" height="80" as="geometry"/>
                </mxCell>
                <mxCell id="559" value="login_time" style="ellipse;whiteSpace=wrap;html=1;fontSize=20;fillColor=#e3c800;fontColor=#000000;strokeColor=#000000;strokeWidth=2;fontStyle=0" parent="1" vertex="1">
                    <mxGeometry x="3548.0199999999995" y="-2446" width="112.76" height="60" as="geometry"/>
                </mxCell>
                <mxCell id="560" value="" style="endArrow=none;html=1;fontSize=20;entryX=0.5;entryY=1;entryDx=0;entryDy=0;strokeWidth=2;strokeColor=#000000;exitX=0.5;exitY=0;exitDx=0;exitDy=0;" parent="1" source="558" target="559" edge="1">
                    <mxGeometry width="50" height="50" relative="1" as="geometry">
                        <mxPoint x="3549.6499999999996" y="-2232" as="sourcePoint"/>
                        <mxPoint x="3540.2199999999993" y="-2347.7" as="targetPoint"/>
                    </mxGeometry>
                </mxCell>
                <mxCell id="561" value="" style="html=1;whiteSpace=wrap;aspect=fixed;shape=isoRectangle;fontSize=19;fillColor=#1ba1e2;fontColor=#ffffff;strokeColor=#000000;strokeWidth=2;" parent="1" vertex="1">
                    <mxGeometry x="3066.11" y="-2343.1000000000004" width="153.33" height="92" as="geometry"/>
                </mxCell>
                <mxCell id="562" value="has" style="html=1;whiteSpace=wrap;aspect=fixed;shape=isoRectangle;fontSize=19;fillColor=#1ba1e2;fontColor=#ffffff;strokeColor=#000000;strokeWidth=2;" parent="1" vertex="1">
                    <mxGeometry x="3076.11" y="-2336.1000000000004" width="133.33" height="80" as="geometry"/>
                </mxCell>
                <mxCell id="563" value="logout_time" style="ellipse;whiteSpace=wrap;html=1;fontSize=20;fillColor=#e3c800;fontColor=#000000;strokeColor=#000000;strokeWidth=2;" parent="1" vertex="1">
                    <mxGeometry x="3317.0599999999995" y="-2221" width="120" height="60" as="geometry"/>
                </mxCell>
                <mxCell id="564" value="" style="endArrow=none;html=1;fontSize=20;entryX=1;entryY=0;entryDx=0;entryDy=0;exitX=0.5;exitY=1;exitDx=0;exitDy=0;strokeWidth=2;strokeColor=#000000;" parent="1" source="558" target="563" edge="1">
                    <mxGeometry width="50" height="50" relative="1" as="geometry">
                        <mxPoint x="3336.08" y="-2337.2" as="sourcePoint"/>
                        <mxPoint x="2905.6499999999996" y="-2131.5" as="targetPoint"/>
                    </mxGeometry>
                </mxCell>
                <mxCell id="565" value="" style="endArrow=none;html=1;fontSize=20;strokeWidth=2;strokeColor=#000000;exitX=1;exitY=0.5;exitDx=0;exitDy=0;entryX=0.039;entryY=0.521;entryDx=0;entryDy=0;entryPerimeter=0;" parent="1" source="512" target="561" edge="1">
                    <mxGeometry width="50" height="50" relative="1" as="geometry">
                        <mxPoint x="2654" y="-2218" as="sourcePoint"/>
                        <mxPoint x="3024" y="-2247" as="targetPoint"/>
                    </mxGeometry>
                </mxCell>
                <mxCell id="566" value="" style="endArrow=none;html=1;fontSize=20;strokeWidth=2;strokeColor=#000000;shape=link;exitX=1.004;exitY=0.514;exitDx=0;exitDy=0;exitPerimeter=0;entryX=0;entryY=0.5;entryDx=0;entryDy=0;" parent="1" source="562" target="558" edge="1">
                    <mxGeometry width="50" height="50" relative="1" as="geometry">
                        <mxPoint x="3237" y="-2236" as="sourcePoint"/>
                        <mxPoint x="3320" y="-2362" as="targetPoint"/>
                    </mxGeometry>
                </mxCell>
                <mxCell id="567" value="N" style="text;html=1;align=center;verticalAlign=middle;whiteSpace=wrap;rounded=0;fontSize=30;strokeWidth=2;strokeColor=none;fontColor=#000000;" parent="1" vertex="1">
                    <mxGeometry x="3207.9999999999995" y="-2333.1" width="60" height="30" as="geometry"/>
                </mxCell>
                <mxCell id="568" value="1" style="text;html=1;align=center;verticalAlign=middle;whiteSpace=wrap;rounded=0;fontSize=30;strokeWidth=2;strokeColor=none;fontColor=#000000;" parent="1" vertex="1">
                    <mxGeometry x="2375.9999999999995" y="-2609" width="60" height="30" as="geometry"/>
                </mxCell>
                <mxCell id="569" value="" style="endArrow=none;html=1;fontSize=20;exitX=1;exitY=0.5;exitDx=0;exitDy=0;startArrow=none;strokeWidth=2;strokeColor=#000000;entryX=0.04;entryY=0.518;entryDx=0;entryDy=0;entryPerimeter=0;" parent="1" source="523" target="536" edge="1">
                    <mxGeometry width="50" height="50" relative="1" as="geometry">
                        <mxPoint x="2167.2816900000003" y="-1874.348" as="sourcePoint"/>
                        <mxPoint x="2357.5864800000004" y="-1845.9040000000005" as="targetPoint"/>
                    </mxGeometry>
                </mxCell>
                <mxCell id="570" value="" style="endArrow=none;html=1;fontSize=20;entryX=0.035;entryY=0.496;entryDx=0;entryDy=0;exitX=1;exitY=0.5;exitDx=0;exitDy=0;startArrow=none;strokeWidth=2;strokeColor=#000000;entryPerimeter=0;" parent="1" source="528" target="639" edge="1">
                    <mxGeometry width="50" height="50" relative="1" as="geometry">
                        <mxPoint x="1399.3983500000008" y="-1885.9640000000004" as="sourcePoint"/>
                        <mxPoint x="1485.3265400000014" y="-1847.1240000000003" as="targetPoint"/>
                    </mxGeometry>
                </mxCell>
                <mxCell id="571" value="" style="endArrow=none;html=1;fontSize=20;entryX=0;entryY=0.5;entryDx=0;entryDy=0;strokeWidth=2;strokeColor=#000000;exitX=1;exitY=1;exitDx=0;exitDy=0;" parent="1" source="512" target="542" edge="1">
                    <mxGeometry width="50" height="50" relative="1" as="geometry">
                        <mxPoint x="2635.33" y="-2462" as="sourcePoint"/>
                        <mxPoint x="2610" y="-2365" as="targetPoint"/>
                    </mxGeometry>
                </mxCell>
                <mxCell id="572" value="" style="html=1;whiteSpace=wrap;aspect=fixed;shape=isoRectangle;fontSize=19;fillColor=#1ba1e2;fontColor=#ffffff;strokeColor=#000000;strokeWidth=2;" parent="1" vertex="1">
                    <mxGeometry x="1986.6700000000003" y="-2710" width="153.33" height="92" as="geometry"/>
                </mxCell>
                <mxCell id="573" value="handles" style="html=1;whiteSpace=wrap;aspect=fixed;shape=isoRectangle;fontSize=19;fillColor=#1ba1e2;fontColor=#ffffff;strokeColor=#000000;strokeWidth=2;" parent="1" vertex="1">
                    <mxGeometry x="1996.3900000000003" y="-2704" width="133.33" height="80" as="geometry"/>
                </mxCell>
                <mxCell id="574" value="" style="html=1;whiteSpace=wrap;aspect=fixed;shape=isoRectangle;fontSize=19;fillColor=#1ba1e2;fontColor=#ffffff;strokeColor=#000000;strokeWidth=2;" parent="1" vertex="1">
                    <mxGeometry x="3412" y="-3089" width="153.33" height="92" as="geometry"/>
                </mxCell>
                <mxCell id="575" value="submits" style="html=1;whiteSpace=wrap;aspect=fixed;shape=isoRectangle;fontSize=19;fillColor=#1ba1e2;fontColor=#ffffff;strokeColor=#000000;strokeWidth=2;" parent="1" vertex="1">
                    <mxGeometry x="3422" y="-3082" width="133.33" height="80" as="geometry"/>
                </mxCell>
                <mxCell id="576" value="" style="endArrow=none;html=1;fontSize=20;exitX=0.493;exitY=0.949;exitDx=0;exitDy=0;entryX=1;entryY=0;entryDx=0;entryDy=0;strokeWidth=2;strokeColor=#000000;exitPerimeter=0;" parent="1" source="574" target="512" edge="1">
                    <mxGeometry width="50" height="50" relative="1" as="geometry">
                        <mxPoint x="1912.74" y="-2583.81" as="sourcePoint"/>
                        <mxPoint x="2100.00319" y="-2586.186" as="targetPoint"/>
                    </mxGeometry>
                </mxCell>
                <mxCell id="577" value="" style="endArrow=none;html=1;fontSize=20;entryX=0.493;entryY=0.019;entryDx=0;entryDy=0;strokeWidth=2;strokeColor=#000000;entryPerimeter=0;exitX=0.5;exitY=1;exitDx=0;exitDy=0;shape=link;" parent="1" source="680" target="574" edge="1">
                    <mxGeometry width="50" height="50" relative="1" as="geometry">
                        <mxPoint x="2732.3899999999994" y="-3008" as="sourcePoint"/>
                        <mxPoint x="2076.69" y="-2693.31" as="targetPoint"/>
                    </mxGeometry>
                </mxCell>
                <mxCell id="578" value="" style="endArrow=none;html=1;fontSize=20;exitX=0.5;exitY=1;exitDx=0;exitDy=0;entryX=0.507;entryY=0.043;entryDx=0;entryDy=0;strokeWidth=2;strokeColor=#000000;entryPerimeter=0;shape=link;" parent="1" source="485" target="572" edge="1">
                    <mxGeometry width="50" height="50" relative="1" as="geometry">
                        <mxPoint x="2092.9316900000003" y="-2987.692" as="sourcePoint"/>
                        <mxPoint x="2271.62" y="-2720" as="targetPoint"/>
                    </mxGeometry>
                </mxCell>
                <mxCell id="579" value="" style="endArrow=none;html=1;fontSize=20;exitX=0.508;exitY=1.046;exitDx=0;exitDy=0;strokeWidth=2;strokeColor=#000000;exitPerimeter=0;entryX=0;entryY=0;entryDx=0;entryDy=0;" parent="1" source="573" target="512" edge="1">
                    <mxGeometry width="50" height="50" relative="1" as="geometry">
                        <mxPoint x="2058.8699999999994" y="-2700" as="sourcePoint"/>
                        <mxPoint x="2606" y="-2403" as="targetPoint"/>
                    </mxGeometry>
                </mxCell>
                <mxCell id="580" value="1" style="text;html=1;align=center;verticalAlign=middle;whiteSpace=wrap;rounded=0;fontSize=30;strokeWidth=2;strokeColor=none;fontColor=#000000;" parent="1" vertex="1">
                    <mxGeometry x="1777.3299999999995" y="-2609" width="60" height="30" as="geometry"/>
                </mxCell>
                <mxCell id="582" value="N" style="text;html=1;align=center;verticalAlign=middle;whiteSpace=wrap;rounded=0;fontSize=30;strokeWidth=2;strokeColor=none;fontColor=#000000;" parent="1" vertex="1">
                    <mxGeometry x="2003.3899999999996" y="-2740" width="60" height="30" as="geometry"/>
                </mxCell>
                <mxCell id="583" value="" style="html=1;whiteSpace=wrap;aspect=fixed;shape=isoRectangle;fontSize=19;fillColor=#1ba1e2;fontColor=#ffffff;strokeColor=#000000;strokeWidth=2;" parent="1" vertex="1">
                    <mxGeometry x="2340.3300000000004" y="-2712" width="153.33" height="92" as="geometry"/>
                </mxCell>
                <mxCell id="584" value="supervises" style="html=1;whiteSpace=wrap;aspect=fixed;shape=isoRectangle;fontSize=19;fillColor=#1ba1e2;fontColor=#ffffff;strokeColor=#000000;strokeWidth=2;" parent="1" vertex="1">
                    <mxGeometry x="2351.3300000000004" y="-2705" width="133.33" height="80" as="geometry"/>
                </mxCell>
                <mxCell id="585" value="" style="endArrow=none;html=1;fontSize=20;exitX=1;exitY=1;exitDx=0;exitDy=0;entryX=0.496;entryY=0.046;entryDx=0;entryDy=0;strokeWidth=2;strokeColor=#000000;entryPerimeter=0;" parent="1" source="485" target="583" edge="1">
                    <mxGeometry width="50" height="50" relative="1" as="geometry">
                        <mxPoint x="2136.97169" y="-2966.692" as="sourcePoint"/>
                        <mxPoint x="2321.66" y="-2690" as="targetPoint"/>
                    </mxGeometry>
                </mxCell>
                <mxCell id="586" value="" style="endArrow=none;html=1;fontSize=20;entryX=0.25;entryY=0;entryDx=0;entryDy=0;strokeWidth=2;strokeColor=#000000;exitX=0.496;exitY=0.952;exitDx=0;exitDy=0;exitPerimeter=0;" parent="1" source="583" target="512" edge="1">
                    <mxGeometry width="50" height="50" relative="1" as="geometry">
                        <mxPoint x="2250" y="-2580" as="sourcePoint"/>
                        <mxPoint x="2332.3816800000004" y="-2331.998" as="targetPoint"/>
                    </mxGeometry>
                </mxCell>
                <mxCell id="587" value="1" style="text;html=1;align=center;verticalAlign=middle;whiteSpace=wrap;rounded=0;fontSize=30;strokeWidth=2;strokeColor=none;fontColor=#000000;" parent="1" vertex="1">
                    <mxGeometry x="2033.0599999999995" y="-2601" width="60" height="30" as="geometry"/>
                </mxCell>
                <mxCell id="588" value="N" style="text;html=1;align=center;verticalAlign=middle;whiteSpace=wrap;rounded=0;fontSize=30;strokeWidth=2;strokeColor=none;fontColor=#000000;" parent="1" vertex="1">
                    <mxGeometry x="2342.1099999999997" y="-2735" width="60" height="30" as="geometry"/>
                </mxCell>
                <mxCell id="589" value="Answer" style="shape=ext;double=1;rounded=0;whiteSpace=wrap;html=1;fontSize=30;fillColor=#60a917;fontColor=#ffffff;strokeColor=#000000;strokeWidth=2;" parent="1" vertex="1">
                    <mxGeometry x="1991.7099999999996" y="-3664" width="160" height="80" as="geometry"/>
                </mxCell>
                <mxCell id="590" value="" style="html=1;whiteSpace=wrap;aspect=fixed;shape=isoRectangle;fontSize=19;fillColor=#1ba1e2;fontColor=#ffffff;strokeColor=#000000;strokeWidth=2;" parent="1" vertex="1">
                    <mxGeometry x="1480.0000000000005" y="-3394" width="153.33" height="92" as="geometry"/>
                </mxCell>
                <mxCell id="591" value="has" style="html=1;whiteSpace=wrap;aspect=fixed;shape=isoRectangle;fontSize=19;fillColor=#1ba1e2;fontColor=#ffffff;strokeColor=#000000;strokeWidth=2;" parent="1" vertex="1">
                    <mxGeometry x="1490.0000000000005" y="-3387" width="133.33" height="80" as="geometry"/>
                </mxCell>
                <mxCell id="592" value="" style="endArrow=none;html=1;fontSize=20;strokeWidth=2;strokeColor=#000000;shape=link;entryX=0;entryY=1;entryDx=0;entryDy=0;exitX=1.007;exitY=0.504;exitDx=0;exitDy=0;exitPerimeter=0;" parent="1" source="591" target="589" edge="1">
                    <mxGeometry width="50" height="50" relative="1" as="geometry">
                        <mxPoint x="1823" y="-3996" as="sourcePoint"/>
                        <mxPoint x="1780" y="-4969" as="targetPoint"/>
                    </mxGeometry>
                </mxCell>
                <mxCell id="593" value="N" style="text;html=1;align=center;verticalAlign=middle;whiteSpace=wrap;rounded=0;fontSize=30;strokeWidth=2;strokeColor=none;fontColor=#000000;" parent="1" vertex="1">
                    <mxGeometry x="1614.9999999999995" y="-3401" width="60" height="30" as="geometry"/>
                </mxCell>
                <mxCell id="606" value="&lt;span style=&quot;font-size: 19px;&quot;&gt;has_negative_score&lt;/span&gt;" style="ellipse;whiteSpace=wrap;html=1;fontSize=30;fillColor=#e3c800;fontColor=#000000;strokeColor=#000000;strokeWidth=2;" parent="1" vertex="1">
                    <mxGeometry x="1644" y="-2920" width="194" height="50" as="geometry"/>
                </mxCell>
                <mxCell id="607" value="" style="endArrow=none;html=1;fontSize=30;entryX=1;entryY=0;entryDx=0;entryDy=0;strokeWidth=2;strokeColor=#000000;exitX=0;exitY=1;exitDx=0;exitDy=0;" parent="1" source="485" target="606" edge="1">
                    <mxGeometry width="50" height="50" relative="1" as="geometry">
                        <mxPoint x="2168.329999999999" y="-3007" as="sourcePoint"/>
                        <mxPoint x="1573.9299999999996" y="-3087" as="targetPoint"/>
                    </mxGeometry>
                </mxCell>
                <mxCell id="610" value="&lt;span style=&quot;font-size: 19px;&quot;&gt;option_id&lt;/span&gt;" style="ellipse;whiteSpace=wrap;html=1;fontSize=30;fillColor=#e3c800;fontColor=#000000;strokeColor=#000000;strokeWidth=2;fontStyle=0" parent="1" vertex="1">
                    <mxGeometry x="1880.3300000000004" y="-3763" width="90" height="50" as="geometry"/>
                </mxCell>
                <mxCell id="611" value="" style="endArrow=none;html=1;fontSize=30;entryX=0.5;entryY=1;entryDx=0;entryDy=0;exitX=0;exitY=0;exitDx=0;exitDy=0;strokeWidth=2;strokeColor=#000000;" parent="1" source="589" target="610" edge="1">
                    <mxGeometry width="50" height="50" relative="1" as="geometry">
                        <mxPoint x="2211.3999999999996" y="-3799" as="sourcePoint"/>
                        <mxPoint x="2066.5699999999997" y="-4004" as="targetPoint"/>
                    </mxGeometry>
                </mxCell>
                <mxCell id="612" value="&lt;span style=&quot;font-size: 19px;&quot;&gt;answer_text&lt;/span&gt;" style="ellipse;whiteSpace=wrap;html=1;fontSize=30;fillColor=#e3c800;fontColor=#000000;strokeColor=#000000;strokeWidth=2;" parent="1" vertex="1">
                    <mxGeometry x="2159.43" y="-3769" width="120" height="50" as="geometry"/>
                </mxCell>
                <mxCell id="613" value="" style="endArrow=none;html=1;fontSize=30;entryX=0.5;entryY=1;entryDx=0;entryDy=0;strokeWidth=2;strokeColor=#000000;exitX=1;exitY=0;exitDx=0;exitDy=0;" parent="1" source="589" target="612" edge="1">
                    <mxGeometry width="50" height="50" relative="1" as="geometry">
                        <mxPoint x="2483.0399999999995" y="-3754" as="sourcePoint"/>
                        <mxPoint x="2338.2099999999996" y="-4039" as="targetPoint"/>
                    </mxGeometry>
                </mxCell>
                <mxCell id="616" value="&lt;span style=&quot;font-size: 19px;&quot;&gt;score&lt;/span&gt;" style="ellipse;whiteSpace=wrap;html=1;fontSize=30;fillColor=#e3c800;fontColor=#000000;strokeColor=#000000;strokeWidth=2;" parent="1" vertex="1">
                    <mxGeometry x="2521" y="-2973" width="66.67" height="50" as="geometry"/>
                </mxCell>
                <mxCell id="617" value="" style="endArrow=none;html=1;fontSize=30;entryX=1;entryY=0;entryDx=0;entryDy=0;strokeWidth=2;strokeColor=#000000;exitX=0.285;exitY=0.812;exitDx=0;exitDy=0;exitPerimeter=0;" parent="1" source="733" target="616" edge="1">
                    <mxGeometry width="50" height="50" relative="1" as="geometry">
                        <mxPoint x="2492.805" y="-3015" as="sourcePoint"/>
                        <mxPoint x="2860.8099999999995" y="-3150" as="targetPoint"/>
                    </mxGeometry>
                </mxCell>
                <mxCell id="618" value="&lt;span style=&quot;font-size: 19px;&quot;&gt;total_questions&lt;/span&gt;" style="ellipse;whiteSpace=wrap;html=1;fontSize=30;fillColor=#e3c800;fontColor=#000000;strokeColor=#000000;strokeWidth=2;" parent="1" vertex="1">
                    <mxGeometry x="2835.7599999999998" y="-2993" width="148.67" height="50" as="geometry"/>
                </mxCell>
                <mxCell id="619" value="" style="endArrow=none;html=1;fontSize=30;entryX=0.5;entryY=0;entryDx=0;entryDy=0;strokeWidth=2;strokeColor=#000000;exitX=0.97;exitY=0.508;exitDx=0;exitDy=0;exitPerimeter=0;" parent="1" source="732" target="618" edge="1">
                    <mxGeometry width="50" height="50" relative="1" as="geometry">
                        <mxPoint x="2654.5799999999995" y="-3217" as="sourcePoint"/>
                        <mxPoint x="2926.8299999999995" y="-3232" as="targetPoint"/>
                    </mxGeometry>
                </mxCell>
                <mxCell id="620" value="&lt;span style=&quot;font-size: 19px;&quot;&gt;correct_answers&lt;/span&gt;" style="ellipse;whiteSpace=wrap;html=1;fontSize=30;fillColor=#e3c800;fontColor=#000000;strokeColor=#000000;strokeWidth=2;" parent="1" vertex="1">
                    <mxGeometry x="2566" y="-2934" width="162.67" height="50" as="geometry"/>
                </mxCell>
                <mxCell id="621" value="" style="endArrow=none;html=1;fontSize=30;entryX=0.5;entryY=0;entryDx=0;entryDy=0;strokeWidth=2;strokeColor=#000000;exitX=0.385;exitY=0.941;exitDx=0;exitDy=0;exitPerimeter=0;" parent="1" source="733" target="620" edge="1">
                    <mxGeometry width="50" height="50" relative="1" as="geometry">
                        <mxPoint x="2601.975" y="-3015" as="sourcePoint"/>
                        <mxPoint x="2954.8099999999995" y="-2985" as="targetPoint"/>
                    </mxGeometry>
                </mxCell>
                <mxCell id="622" value="&lt;span style=&quot;font-size: 19px;&quot;&gt;wrong_answers&lt;/span&gt;" style="ellipse;whiteSpace=wrap;html=1;fontSize=30;fillColor=#e3c800;fontColor=#000000;strokeColor=#000000;strokeWidth=2;" parent="1" vertex="1">
                    <mxGeometry x="2572.3300000000004" y="-3173" width="150" height="50" as="geometry"/>
                </mxCell>
                <mxCell id="623" value="&lt;span style=&quot;font-size: 19px;&quot;&gt;unanswered_questions&lt;/span&gt;" style="ellipse;whiteSpace=wrap;html=1;fontSize=30;fillColor=#e3c800;fontColor=#000000;strokeColor=#000000;strokeWidth=2;" parent="1" vertex="1">
                    <mxGeometry x="2763.7200000000003" y="-3160" width="214.28" height="50" as="geometry"/>
                </mxCell>
                <mxCell id="624" value="ERD/CDM" style="text;html=1;strokeColor=#001DBC;fillColor=#0050ef;align=center;verticalAlign=middle;whiteSpace=wrap;rounded=0;fontStyle=1;fontSize=70;fontColor=#ffffff;" parent="1" vertex="1">
                    <mxGeometry x="2043.69" y="-3974" width="377" height="80" as="geometry"/>
                </mxCell>
                <mxCell id="627" value="&lt;span style=&quot;font-size: 19px;&quot;&gt;role_assignment_date&lt;/span&gt;" style="ellipse;whiteSpace=wrap;html=1;fontSize=30;fillColor=#e3c800;fontColor=#000000;strokeColor=#000000;strokeWidth=2;" parent="1" vertex="1">
                    <mxGeometry x="2761" y="-1728" width="217" height="50" as="geometry"/>
                </mxCell>
                <mxCell id="628" value="&lt;span style=&quot;font-size: 19px;&quot;&gt;role_assignment_time&lt;/span&gt;" style="ellipse;whiteSpace=wrap;html=1;fontSize=30;fillColor=#e3c800;fontColor=#000000;strokeColor=#000000;strokeWidth=2;" parent="1" vertex="1">
                    <mxGeometry x="2491.9300000000003" y="-1726" width="212.17" height="50" as="geometry"/>
                </mxCell>
                <mxCell id="629" value="" style="endArrow=none;html=1;fontSize=20;exitX=0.5;exitY=0;exitDx=0;exitDy=0;startArrow=none;strokeWidth=2;strokeColor=#000000;entryX=0.496;entryY=1.041;entryDx=0;entryDy=0;entryPerimeter=0;" parent="1" source="628" target="537" edge="1">
                    <mxGeometry width="50" height="50" relative="1" as="geometry">
                        <mxPoint x="2549.431690000001" y="-1732.4479999999999" as="sourcePoint"/>
                        <mxPoint x="2647" y="-1807.6999999999998" as="targetPoint"/>
                    </mxGeometry>
                </mxCell>
                <mxCell id="638" value="N" style="text;html=1;align=center;verticalAlign=middle;whiteSpace=wrap;rounded=0;fontSize=30;strokeWidth=2;strokeColor=none;fontColor=#000000;" parent="1" vertex="1">
                    <mxGeometry x="2603" y="-1893.8" width="60" height="30" as="geometry"/>
                </mxCell>
                <mxCell id="639" value="" style="html=1;whiteSpace=wrap;aspect=fixed;shape=isoRectangle;fontSize=19;fillColor=#1ba1e2;fontColor=#ffffff;strokeColor=#000000;strokeWidth=2;" parent="1" vertex="1">
                    <mxGeometry x="1583.3900000000008" y="-1887.3000000000002" width="153.33" height="92" as="geometry"/>
                </mxCell>
                <mxCell id="640" value="has" style="html=1;whiteSpace=wrap;aspect=fixed;shape=isoRectangle;fontSize=19;fillColor=#1ba1e2;fontColor=#ffffff;strokeColor=#000000;strokeWidth=2;" parent="1" vertex="1">
                    <mxGeometry x="1593.3900000000008" y="-1881.3000000000002" width="133.33" height="80" as="geometry"/>
                </mxCell>
                <mxCell id="644" value="" style="endArrow=none;html=1;fontSize=20;entryX=0;entryY=0.5;entryDx=0;entryDy=0;exitX=1.01;exitY=0.495;exitDx=0;exitDy=0;startArrow=none;strokeWidth=2;strokeColor=#000000;exitPerimeter=0;" parent="1" source="640" target="523" edge="1">
                    <mxGeometry width="50" height="50" relative="1" as="geometry">
                        <mxPoint x="1831.6500800000013" y="-1841.5240000000003" as="sourcePoint"/>
                        <mxPoint x="1961.979870000001" y="-1816.9139999999998" as="targetPoint"/>
                    </mxGeometry>
                </mxCell>
                <mxCell id="651" value="" style="html=1;whiteSpace=wrap;aspect=fixed;shape=isoRectangle;fontSize=19;fillColor=#1ba1e2;fontColor=#ffffff;strokeColor=#000000;strokeWidth=2;" parent="1" vertex="1">
                    <mxGeometry x="1993.3900000000003" y="-3408" width="153.33" height="92" as="geometry"/>
                </mxCell>
                <mxCell id="652" value="has" style="html=1;whiteSpace=wrap;aspect=fixed;shape=isoRectangle;fontSize=19;fillColor=#1ba1e2;fontColor=#ffffff;strokeColor=#000000;strokeWidth=2;" parent="1" vertex="1">
                    <mxGeometry x="2003.3900000000003" y="-3401" width="133.33" height="80" as="geometry"/>
                </mxCell>
                <mxCell id="653" value="" style="endArrow=none;html=1;fontSize=20;entryX=0.5;entryY=0.036;entryDx=0;entryDy=0;strokeWidth=2;strokeColor=#000000;exitX=0.5;exitY=1;exitDx=0;exitDy=0;entryPerimeter=0;shape=link;" parent="1" source="589" target="651" edge="1">
                    <mxGeometry width="50" height="50" relative="1" as="geometry">
                        <mxPoint x="2116.565010000001" y="-3748" as="sourcePoint"/>
                        <mxPoint x="2115.6500000000005" y="-4126.4" as="targetPoint"/>
                    </mxGeometry>
                </mxCell>
                <mxCell id="654" value="N" style="text;html=1;align=center;verticalAlign=middle;whiteSpace=wrap;rounded=0;fontSize=30;strokeWidth=2;strokeColor=none;fontColor=#000000;" parent="1" vertex="1">
                    <mxGeometry x="2069.7199999999993" y="-3438" width="60" height="30" as="geometry"/>
                </mxCell>
                <mxCell id="667" value="" style="endArrow=none;html=1;fontSize=20;entryX=0.5;entryY=0;entryDx=0;entryDy=0;strokeWidth=2;strokeColor=#000000;exitX=0.489;exitY=1.01;exitDx=0;exitDy=0;exitPerimeter=0;" parent="1" source="652" target="485" edge="1">
                    <mxGeometry width="50" height="50" relative="1" as="geometry">
                        <mxPoint x="2477.164960000001" y="-3423.7599999999998" as="sourcePoint"/>
                        <mxPoint x="2475.0499999999984" y="-3216" as="targetPoint"/>
                    </mxGeometry>
                </mxCell>
                <mxCell id="668" value="1" style="text;html=1;align=center;verticalAlign=middle;whiteSpace=wrap;rounded=0;fontSize=30;strokeWidth=2;strokeColor=none;fontColor=#000000;" parent="1" vertex="1">
                    <mxGeometry x="3467.1799999999994" y="-2980" width="60" height="30" as="geometry"/>
                </mxCell>
                <mxCell id="669" value="" style="endArrow=none;html=1;fontSize=20;strokeWidth=2;strokeColor=#000000;exitX=0.033;exitY=0.482;exitDx=0;exitDy=0;exitPerimeter=0;entryX=1;entryY=0.5;entryDx=0;entryDy=0;" parent="1" source="590" target="455" edge="1">
                    <mxGeometry width="50" height="50" relative="1" as="geometry">
                        <mxPoint x="1506.0034200000002" y="-3670.002" as="sourcePoint"/>
                        <mxPoint x="1128" y="-3086" as="targetPoint"/>
                    </mxGeometry>
                </mxCell>
                <mxCell id="674" value="" style="endArrow=none;html=1;fontSize=30;entryX=0.5;entryY=1;entryDx=0;entryDy=0;strokeWidth=2;strokeColor=#000000;exitX=0.979;exitY=0.476;exitDx=0;exitDy=0;exitPerimeter=0;" parent="1" source="732" target="623" edge="1">
                    <mxGeometry width="50" height="50" relative="1" as="geometry">
                        <mxPoint x="2654.5799999999995" y="-3217" as="sourcePoint"/>
                        <mxPoint x="2637.105" y="-3313" as="targetPoint"/>
                    </mxGeometry>
                </mxCell>
                <mxCell id="675" value="" style="endArrow=none;html=1;fontSize=30;entryX=0.506;entryY=0.009;entryDx=0;entryDy=0;strokeWidth=2;strokeColor=#000000;exitX=1;exitY=1;exitDx=0;exitDy=0;entryPerimeter=0;" parent="1" source="622" target="732" edge="1">
                    <mxGeometry width="50" height="50" relative="1" as="geometry">
                        <mxPoint x="2426.0249999999996" y="-3285" as="sourcePoint"/>
                        <mxPoint x="2654.5799999999995" y="-3217" as="targetPoint"/>
                    </mxGeometry>
                </mxCell>
                <mxCell id="676" value="&lt;span style=&quot;font-size: 19px;&quot;&gt;supervisor_user_name&lt;/span&gt;" style="ellipse;whiteSpace=wrap;html=1;fontSize=30;fillColor=#e3c800;fontColor=#000000;strokeColor=#000000;strokeWidth=2;" parent="1" vertex="1">
                    <mxGeometry x="1671.3799999999999" y="-2862" width="198.67" height="50" as="geometry"/>
                </mxCell>
                <mxCell id="677" value="" style="endArrow=none;html=1;fontSize=30;entryX=1;entryY=0;entryDx=0;entryDy=0;strokeWidth=2;strokeColor=#000000;exitX=0;exitY=1;exitDx=0;exitDy=0;" parent="1" source="485" target="676" edge="1">
                    <mxGeometry width="50" height="50" relative="1" as="geometry">
                        <mxPoint x="2133.3299999999995" y="-3006" as="sourcePoint"/>
                        <mxPoint x="1567.2599999999995" y="-2913" as="targetPoint"/>
                    </mxGeometry>
                </mxCell>
                <mxCell id="678" value="&lt;span style=&quot;font-size: 19px;&quot;&gt;handler_user_name&lt;/span&gt;" style="ellipse;whiteSpace=wrap;html=1;fontSize=30;fillColor=#e3c800;fontColor=#000000;strokeColor=#000000;strokeWidth=2;" parent="1" vertex="1">
                    <mxGeometry x="2270" y="-2923" width="198.67" height="50" as="geometry"/>
                </mxCell>
                <mxCell id="679" value="" style="endArrow=none;html=1;fontSize=30;entryX=0;entryY=0;entryDx=0;entryDy=0;strokeWidth=2;strokeColor=#000000;" parent="1" target="678" edge="1">
                    <mxGeometry width="50" height="50" relative="1" as="geometry">
                        <mxPoint x="2140" y="-3005" as="sourcePoint"/>
                        <mxPoint x="1403.9299999999996" y="-2820" as="targetPoint"/>
                    </mxGeometry>
                </mxCell>
                <mxCell id="680" value="Feedback" style="shape=ext;double=1;rounded=0;whiteSpace=wrap;html=1;fontSize=30;fillColor=#60a917;fontColor=#ffffff;strokeColor=#000000;strokeWidth=2;" parent="1" vertex="1">
                    <mxGeometry x="2655.3299999999995" y="-3655" width="160" height="80" as="geometry"/>
                </mxCell>
                <mxCell id="681" value="" style="html=1;whiteSpace=wrap;aspect=fixed;shape=isoRectangle;fontSize=19;fillColor=#1ba1e2;fontColor=#ffffff;strokeColor=#000000;strokeWidth=2;" parent="1" vertex="1">
                    <mxGeometry x="2392" y="-3325" width="153.33" height="92" as="geometry"/>
                </mxCell>
                <mxCell id="682" value="has" style="html=1;whiteSpace=wrap;aspect=fixed;shape=isoRectangle;fontSize=19;fillColor=#1ba1e2;fontColor=#ffffff;strokeColor=#000000;strokeWidth=2;" parent="1" vertex="1">
                    <mxGeometry x="2402" y="-3318" width="133.33" height="80" as="geometry"/>
                </mxCell>
                <mxCell id="683" value="" style="endArrow=none;html=1;fontSize=20;entryX=1;entryY=0;entryDx=0;entryDy=0;strokeWidth=2;strokeColor=#000000;exitX=0.512;exitY=1.004;exitDx=0;exitDy=0;exitPerimeter=0;" parent="1" source="682" target="485" edge="1">
                    <mxGeometry width="50" height="50" relative="1" as="geometry">
                        <mxPoint x="2567.0034200000005" y="-3393.5519999999997" as="sourcePoint"/>
                        <mxPoint x="2732.3899999999994" y="-3088" as="targetPoint"/>
                    </mxGeometry>
                </mxCell>
                <mxCell id="684" value="" style="endArrow=none;html=1;fontSize=20;entryX=0.504;entryY=0.076;entryDx=0;entryDy=0;strokeWidth=2;strokeColor=#000000;exitX=0.5;exitY=1;exitDx=0;exitDy=0;entryPerimeter=0;shape=link;" parent="1" source="680" target="681" edge="1">
                    <mxGeometry width="50" height="50" relative="1" as="geometry">
                        <mxPoint x="2887.5949600000004" y="-3593.0000000000005" as="sourcePoint"/>
                        <mxPoint x="2886" y="-3364.32" as="targetPoint"/>
                    </mxGeometry>
                </mxCell>
                <mxCell id="686" value="N" style="text;html=1;align=center;verticalAlign=middle;whiteSpace=wrap;rounded=0;fontSize=30;strokeWidth=2;strokeColor=none;fontColor=#000000;" parent="1" vertex="1">
                    <mxGeometry x="3467.1799999999994" y="-3141.5" width="60" height="30" as="geometry"/>
                </mxCell>
                <mxCell id="687" value="&lt;span style=&quot;font-size: 19px;&quot;&gt;&lt;span&gt;feedback_type&lt;/span&gt;&lt;/span&gt;" style="ellipse;whiteSpace=wrap;html=1;fontSize=30;fillColor=#e3c800;fontColor=#000000;strokeColor=#000000;strokeWidth=2;fontStyle=0" parent="1" vertex="1">
                    <mxGeometry x="2839" y="-3763" width="142.18" height="50" as="geometry"/>
                </mxCell>
                <mxCell id="688" value="" style="endArrow=none;html=1;fontSize=30;entryX=0.5;entryY=1;entryDx=0;entryDy=0;exitX=1;exitY=0;exitDx=0;exitDy=0;strokeWidth=2;strokeColor=#000000;" parent="1" source="680" target="687" edge="1">
                    <mxGeometry width="50" height="50" relative="1" as="geometry">
                        <mxPoint x="2863" y="-3687" as="sourcePoint"/>
                        <mxPoint x="2812.43" y="-3823" as="targetPoint"/>
                    </mxGeometry>
                </mxCell>
                <mxCell id="689" value="&lt;span style=&quot;font-size: 19px;&quot;&gt;text&lt;/span&gt;" style="ellipse;whiteSpace=wrap;html=1;fontSize=30;fillColor=#e3c800;fontColor=#000000;strokeColor=#000000;strokeWidth=2;" parent="1" vertex="1">
                    <mxGeometry x="2934" y="-3575" width="65.56" height="50" as="geometry"/>
                </mxCell>
                <mxCell id="690" value="" style="endArrow=none;html=1;fontSize=30;strokeWidth=2;strokeColor=#000000;exitX=0;exitY=0.5;exitDx=0;exitDy=0;entryX=1;entryY=1;entryDx=0;entryDy=0;" parent="1" source="689" target="680" edge="1">
                    <mxGeometry width="50" height="50" relative="1" as="geometry">
                        <mxPoint x="2595.4449999999997" y="-3527" as="sourcePoint"/>
                        <mxPoint x="2761" y="-3554" as="targetPoint"/>
                    </mxGeometry>
                </mxCell>
                <mxCell id="695" value="&lt;span style=&quot;font-size: 19px;&quot;&gt;&lt;span&gt;feedback_time&lt;/span&gt;&lt;/span&gt;" style="ellipse;whiteSpace=wrap;html=1;fontSize=30;fillColor=#e3c800;fontColor=#000000;strokeColor=#000000;strokeWidth=2;fontStyle=0" parent="1" vertex="1">
                    <mxGeometry x="2914" y="-3676" width="146.56" height="50" as="geometry"/>
                </mxCell>
                <mxCell id="696" value="" style="endArrow=none;html=1;fontSize=30;entryX=1;entryY=0.5;entryDx=0;entryDy=0;strokeWidth=2;strokeColor=#000000;exitX=0;exitY=0.5;exitDx=0;exitDy=0;" parent="1" source="695" target="680" edge="1">
                    <mxGeometry width="50" height="50" relative="1" as="geometry">
                        <mxPoint x="2190.165" y="-3470" as="sourcePoint"/>
                        <mxPoint x="2427.0499999999993" y="-3569" as="targetPoint"/>
                    </mxGeometry>
                </mxCell>
                <mxCell id="697" value="&lt;span style=&quot;font-size: 19px;&quot;&gt;is_visible&lt;/span&gt;" style="ellipse;whiteSpace=wrap;html=1;fontSize=30;fillColor=#e3c800;fontColor=#000000;strokeColor=#000000;strokeWidth=2;" parent="1" vertex="1">
                    <mxGeometry x="2495.44" y="-3553" width="107.56" height="50" as="geometry"/>
                </mxCell>
                <mxCell id="698" value="" style="endArrow=none;html=1;fontSize=30;entryX=0;entryY=1;entryDx=0;entryDy=0;strokeWidth=2;strokeColor=#000000;exitX=0.5;exitY=0;exitDx=0;exitDy=0;" parent="1" source="697" target="680" edge="1">
                    <mxGeometry width="50" height="50" relative="1" as="geometry">
                        <mxPoint x="2104.005" y="-3527" as="sourcePoint"/>
                        <mxPoint x="2569.1699999999996" y="-3632" as="targetPoint"/>
                    </mxGeometry>
                </mxCell>
                <mxCell id="699" value="&lt;span style=&quot;font-size: 19px;&quot;&gt;status&lt;/span&gt;" style="ellipse;whiteSpace=wrap;html=1;fontSize=30;fillColor=#e3c800;fontColor=#000000;strokeColor=#000000;strokeWidth=2;" parent="1" vertex="1">
                    <mxGeometry x="2502.33" y="-3676" width="73.23" height="50" as="geometry"/>
                </mxCell>
                <mxCell id="700" value="" style="endArrow=none;html=1;fontSize=30;entryX=0;entryY=0.5;entryDx=0;entryDy=0;strokeWidth=2;strokeColor=#000000;exitX=1;exitY=0.5;exitDx=0;exitDy=0;" parent="1" source="699" target="680" edge="1">
                    <mxGeometry width="50" height="50" relative="1" as="geometry">
                        <mxPoint x="2051.675" y="-3595" as="sourcePoint"/>
                        <mxPoint x="2602.9999999999995" y="-3643" as="targetPoint"/>
                    </mxGeometry>
                </mxCell>
                <mxCell id="701" value="&lt;span style=&quot;font-size: 19px;&quot;&gt;rating&lt;/span&gt;" style="ellipse;whiteSpace=wrap;html=1;fontSize=30;fillColor=#e3c800;fontColor=#000000;strokeColor=#000000;strokeWidth=2;" parent="1" vertex="1">
                    <mxGeometry x="2567.77" y="-3751" width="73.23" height="50" as="geometry"/>
                </mxCell>
                <mxCell id="702" value="" style="endArrow=none;html=1;fontSize=30;entryX=0.25;entryY=0;entryDx=0;entryDy=0;strokeWidth=2;strokeColor=#000000;exitX=1;exitY=0.5;exitDx=0;exitDy=0;" parent="1" source="701" target="680" edge="1">
                    <mxGeometry width="50" height="50" relative="1" as="geometry">
                        <mxPoint x="2052.3450000000003" y="-3685" as="sourcePoint"/>
                        <mxPoint x="2655.9999999999995" y="-3705" as="targetPoint"/>
                    </mxGeometry>
                </mxCell>
                <mxCell id="703" value="&lt;span style=&quot;font-size: 19px;&quot;&gt;question_id&lt;/span&gt;" style="ellipse;whiteSpace=wrap;html=1;fontSize=30;fillColor=#e3c800;fontColor=#000000;strokeColor=#000000;strokeWidth=2;" parent="1" vertex="1">
                    <mxGeometry x="2671.77" y="-3780" width="129.23" height="50" as="geometry"/>
                </mxCell>
                <mxCell id="704" value="" style="endArrow=none;html=1;fontSize=30;entryX=0.5;entryY=0;entryDx=0;entryDy=0;strokeWidth=2;strokeColor=#000000;exitX=0.5;exitY=1;exitDx=0;exitDy=0;" parent="1" source="703" target="680" edge="1">
                    <mxGeometry width="50" height="50" relative="1" as="geometry">
                        <mxPoint x="2085.6850000000004" y="-3758" as="sourcePoint"/>
                        <mxPoint x="2688.6699999999996" y="-3728" as="targetPoint"/>
                    </mxGeometry>
                </mxCell>
                <mxCell id="705" value="" style="html=1;whiteSpace=wrap;aspect=fixed;shape=isoRectangle;fontSize=19;fillColor=#1ba1e2;fontColor=#ffffff;strokeColor=#000000;strokeWidth=2;" parent="1" vertex="1">
                    <mxGeometry x="1992.6700000000005" y="-2351" width="153.33" height="92" as="geometry"/>
                </mxCell>
                <mxCell id="706" value="creates" style="html=1;whiteSpace=wrap;aspect=fixed;shape=isoRectangle;fontSize=19;fillColor=#1ba1e2;fontColor=#ffffff;strokeColor=#000000;strokeWidth=2;" parent="1" vertex="1">
                    <mxGeometry x="2002.3900000000003" y="-2345" width="133.33" height="80" as="geometry"/>
                </mxCell>
                <mxCell id="707" value="" style="endArrow=none;html=1;fontSize=20;exitX=0.936;exitY=0.492;exitDx=0;exitDy=0;strokeWidth=2;strokeColor=#000000;exitPerimeter=0;entryX=0;entryY=0.5;entryDx=0;entryDy=0;" parent="1" source="705" target="512" edge="1">
                    <mxGeometry width="50" height="50" relative="1" as="geometry">
                        <mxPoint x="1967.3516400000003" y="-2540.32" as="sourcePoint"/>
                        <mxPoint x="2558.56" y="-2259" as="targetPoint"/>
                    </mxGeometry>
                </mxCell>
                <mxCell id="708" value="" style="endArrow=none;html=1;fontSize=20;strokeWidth=2;strokeColor=#000000;entryX=0.057;entryY=0.583;entryDx=0;entryDy=0;entryPerimeter=0;exitX=0.5;exitY=1;exitDx=0;exitDy=0;shape=link;" parent="1" source="455" target="705" edge="1">
                    <mxGeometry width="50" height="50" relative="1" as="geometry">
                        <mxPoint x="776" y="-2962" as="sourcePoint"/>
                        <mxPoint x="1552.2099999999996" y="-2376.68" as="targetPoint"/>
                    </mxGeometry>
                </mxCell>
                <mxCell id="709" value="1" style="text;html=1;align=center;verticalAlign=middle;whiteSpace=wrap;rounded=0;fontSize=30;strokeWidth=2;strokeColor=none;fontColor=#000000;" parent="1" vertex="1">
                    <mxGeometry x="3019.9999999999995" y="-2332" width="60" height="30" as="geometry"/>
                </mxCell>
                <mxCell id="710" value="N" style="text;html=1;align=center;verticalAlign=middle;whiteSpace=wrap;rounded=0;fontSize=30;strokeWidth=2;strokeColor=none;fontColor=#000000;" parent="1" vertex="1">
                    <mxGeometry x="1939.9999999999995" y="-2357.8" width="60" height="30" as="geometry"/>
                </mxCell>
                <mxCell id="711" value="&lt;span style=&quot;font-size: 19px;&quot;&gt;creator_user_name&lt;/span&gt;" style="ellipse;whiteSpace=wrap;html=1;fontSize=30;fillColor=#e3c800;fontColor=#000000;strokeColor=#000000;strokeWidth=2;" parent="1" vertex="1">
                    <mxGeometry x="739.8699999999999" y="-2997" width="210" height="50" as="geometry"/>
                </mxCell>
                <mxCell id="712" value="" style="endArrow=none;html=1;fontSize=30;entryX=1;entryY=0.5;entryDx=0;entryDy=0;strokeWidth=2;strokeColor=#000000;exitX=0;exitY=1;exitDx=0;exitDy=0;" parent="1" source="455" target="711" edge="1">
                    <mxGeometry width="50" height="50" relative="1" as="geometry">
                        <mxPoint x="1175" y="-2945" as="sourcePoint"/>
                        <mxPoint x="950.2462120245714" y="-2974.67766952966" as="targetPoint"/>
                    </mxGeometry>
                </mxCell>
                <mxCell id="713" value="" style="html=1;whiteSpace=wrap;aspect=fixed;shape=isoRectangle;fontSize=19;fillColor=#1ba1e2;fontColor=#ffffff;strokeColor=#000000;strokeWidth=2;" parent="1" vertex="1">
                    <mxGeometry x="1727.0000000000002" y="-2712" width="153.33" height="92" as="geometry"/>
                </mxCell>
                <mxCell id="714" value="creates" style="html=1;whiteSpace=wrap;aspect=fixed;shape=isoRectangle;fontSize=19;fillColor=#1ba1e2;fontColor=#ffffff;strokeColor=#000000;strokeWidth=2;" parent="1" vertex="1">
                    <mxGeometry x="1736.7200000000003" y="-2706" width="133.33" height="80" as="geometry"/>
                </mxCell>
                <mxCell id="715" value="" style="endArrow=none;html=1;fontSize=20;exitX=0.25;exitY=1;exitDx=0;exitDy=0;entryX=0.511;entryY=0.031;entryDx=0;entryDy=0;strokeWidth=2;strokeColor=#000000;entryPerimeter=0;shape=link;" parent="1" source="485" target="713" edge="1">
                    <mxGeometry width="50" height="50" relative="1" as="geometry">
                        <mxPoint x="1957.7999999999995" y="-2962" as="sourcePoint"/>
                        <mxPoint x="1962.2083100000002" y="-2664.0440000000003" as="targetPoint"/>
                    </mxGeometry>
                </mxCell>
                <mxCell id="716" value="" style="endArrow=none;html=1;fontSize=20;exitX=0.504;exitY=0.961;exitDx=0;exitDy=0;strokeWidth=2;strokeColor=#000000;exitPerimeter=0;entryX=0;entryY=0.5;entryDx=0;entryDy=0;" parent="1" source="713" target="512" edge="1">
                    <mxGeometry width="50" height="50" relative="1" as="geometry">
                        <mxPoint x="1898.7116400000002" y="-2603" as="sourcePoint"/>
                        <mxPoint x="2489.9200000000005" y="-2321.68" as="targetPoint"/>
                    </mxGeometry>
                </mxCell>
                <mxCell id="717" value="1" style="text;html=1;align=center;verticalAlign=middle;whiteSpace=wrap;rounded=0;fontSize=30;strokeWidth=2;strokeColor=none;fontColor=#000000;" parent="1" vertex="1">
                    <mxGeometry x="2154.9999999999995" y="-2339" width="60" height="30" as="geometry"/>
                </mxCell>
                <mxCell id="718" value="N" style="text;html=1;align=center;verticalAlign=middle;whiteSpace=wrap;rounded=0;fontSize=30;strokeWidth=2;strokeColor=none;fontColor=#000000;" parent="1" vertex="1">
                    <mxGeometry x="1751.9999999999995" y="-2742" width="60" height="30" as="geometry"/>
                </mxCell>
                <mxCell id="719" value="&lt;span style=&quot;font-size: 19px;&quot;&gt;creator_user_name&lt;/span&gt;" style="ellipse;whiteSpace=wrap;html=1;fontSize=30;fillColor=#e3c800;fontColor=#000000;strokeColor=#000000;strokeWidth=2;" parent="1" vertex="1">
                    <mxGeometry x="2080.76" y="-2865" width="198.67" height="50" as="geometry"/>
                </mxCell>
                <mxCell id="720" value="" style="endArrow=none;html=1;fontSize=30;entryX=0;entryY=0;entryDx=0;entryDy=0;strokeWidth=2;strokeColor=#000000;exitX=0.75;exitY=1;exitDx=0;exitDy=0;" parent="1" source="485" target="719" edge="1">
                    <mxGeometry width="50" height="50" relative="1" as="geometry">
                        <mxPoint x="1950.76" y="-2947" as="sourcePoint"/>
                        <mxPoint x="1214.6899999999996" y="-2762" as="targetPoint"/>
                    </mxGeometry>
                </mxCell>
                <mxCell id="721" value="email" style="ellipse;whiteSpace=wrap;html=1;fontSize=20;fillColor=#e3c800;fontColor=#000000;strokeColor=#000000;strokeWidth=2;" parent="1" vertex="1">
                    <mxGeometry x="2454" y="-2292" width="87.08" height="60" as="geometry"/>
                </mxCell>
                <mxCell id="722" value="" style="endArrow=none;html=1;fontSize=20;entryX=1;entryY=0.5;entryDx=0;entryDy=0;exitX=0;exitY=1;exitDx=0;exitDy=0;strokeWidth=2;strokeColor=#000000;" parent="1" source="512" target="721" edge="1">
                    <mxGeometry width="50" height="50" relative="1" as="geometry">
                        <mxPoint x="2575.56" y="-2259" as="sourcePoint"/>
                        <mxPoint x="2115.56" y="-1786.5" as="targetPoint"/>
                    </mxGeometry>
                </mxCell>
                <mxCell id="723" value="&lt;span style=&quot;font-size: 19px;&quot;&gt;is_passed&lt;/span&gt;" style="ellipse;whiteSpace=wrap;html=1;fontSize=30;fillColor=#e3c800;fontColor=#000000;strokeColor=#000000;strokeWidth=2;" parent="1" vertex="1">
                    <mxGeometry x="2431.0000000000005" y="-3031" width="150" height="50" as="geometry"/>
                </mxCell>
                <mxCell id="724" value="" style="endArrow=none;html=1;fontSize=30;entryX=0.162;entryY=0.682;entryDx=0;entryDy=0;strokeWidth=2;strokeColor=#000000;entryPerimeter=0;exitX=1;exitY=0.5;exitDx=0;exitDy=0;" parent="1" source="723" target="733" edge="1">
                    <mxGeometry width="50" height="50" relative="1" as="geometry">
                        <mxPoint x="2587" y="-3020" as="sourcePoint"/>
                        <mxPoint x="2599.995" y="-3217" as="targetPoint"/>
                    </mxGeometry>
                </mxCell>
                <mxCell id="725" value="&lt;span style=&quot;font-size: 19px;&quot;&gt;subtopic&lt;/span&gt;" style="ellipse;whiteSpace=wrap;html=1;fontSize=30;fillColor=#e3c800;fontColor=#000000;strokeColor=#000000;strokeWidth=2;" parent="1" vertex="1">
                    <mxGeometry x="807" y="-3173" width="93.51" height="50" as="geometry"/>
                </mxCell>
                <mxCell id="726" value="" style="endArrow=none;html=1;fontSize=30;entryX=1;entryY=1;entryDx=0;entryDy=0;exitX=0;exitY=0.25;exitDx=0;exitDy=0;strokeWidth=2;strokeColor=#000000;" parent="1" source="455" target="725" edge="1">
                    <mxGeometry width="50" height="50" relative="1" as="geometry">
                        <mxPoint x="1108" y="-3086" as="sourcePoint"/>
                        <mxPoint x="928.1699999999996" y="-3396" as="targetPoint"/>
                    </mxGeometry>
                </mxCell>
                <mxCell id="727" value="&lt;span style=&quot;font-size: 19px;&quot;&gt;status&lt;/span&gt;" style="ellipse;whiteSpace=wrap;html=1;fontSize=30;fillColor=#e3c800;fontColor=#000000;strokeColor=#000000;strokeWidth=2;" parent="1" vertex="1">
                    <mxGeometry x="1945" y="-2870" width="79.76" height="50" as="geometry"/>
                </mxCell>
                <mxCell id="728" value="" style="endArrow=none;html=1;fontSize=30;entryX=0.5;entryY=0;entryDx=0;entryDy=0;strokeWidth=2;strokeColor=#000000;exitX=0.25;exitY=1;exitDx=0;exitDy=0;" parent="1" source="485" target="727" edge="1">
                    <mxGeometry width="50" height="50" relative="1" as="geometry">
                        <mxPoint x="1901.3299999999995" y="-2997" as="sourcePoint"/>
                        <mxPoint x="1016.0199999999996" y="-2755" as="targetPoint"/>
                    </mxGeometry>
                </mxCell>
                <mxCell id="729" value="1" style="text;html=1;align=center;verticalAlign=middle;whiteSpace=wrap;rounded=0;fontSize=30;strokeWidth=2;strokeColor=none;fontColor=#000000;" parent="1" vertex="1">
                    <mxGeometry x="2016.9999999999995" y="-3312" width="60" height="30" as="geometry"/>
                </mxCell>
                <mxCell id="730" value="1" style="text;html=1;align=center;verticalAlign=middle;whiteSpace=wrap;rounded=0;fontSize=30;strokeWidth=2;strokeColor=none;fontColor=#000000;" parent="1" vertex="1">
                    <mxGeometry x="2437.4399999999996" y="-3224" width="60" height="30" as="geometry"/>
                </mxCell>
                <mxCell id="731" value="N" style="text;html=1;align=center;verticalAlign=middle;whiteSpace=wrap;rounded=0;fontSize=30;strokeWidth=2;strokeColor=none;fontColor=#000000;" parent="1" vertex="1">
                    <mxGeometry x="2420.6899999999996" y="-3357" width="60" height="30" as="geometry"/>
                </mxCell>
                <mxCell id="732" value="" style="html=1;whiteSpace=wrap;aspect=fixed;shape=isoRectangle;fontSize=19;fillColor=#1ba1e2;fontColor=#ffffff;strokeColor=#000000;strokeWidth=2;" parent="1" vertex="1">
                    <mxGeometry x="2657.8900000000003" y="-3090" width="153.33" height="92" as="geometry"/>
                </mxCell>
                <mxCell id="733" value="participates in" style="html=1;whiteSpace=wrap;aspect=fixed;shape=isoRectangle;fontSize=19;fillColor=#1ba1e2;fontColor=#ffffff;strokeColor=#000000;strokeWidth=2;" parent="1" vertex="1">
                    <mxGeometry x="2667.8900000000003" y="-3083" width="133.33" height="80" as="geometry"/>
                </mxCell>
                <mxCell id="734" value="" style="endArrow=none;html=1;fontSize=20;exitX=0.504;exitY=0.985;exitDx=0;exitDy=0;entryX=0.5;entryY=0;entryDx=0;entryDy=0;strokeWidth=2;strokeColor=#000000;exitPerimeter=0;" parent="1" source="733" target="512" edge="1">
                    <mxGeometry width="50" height="50" relative="1" as="geometry">
                        <mxPoint x="2883.41169" y="-3083.002" as="sourcePoint"/>
                        <mxPoint x="2550.33" y="-2419.31" as="targetPoint"/>
                    </mxGeometry>
                </mxCell>
                <mxCell id="735" value="" style="endArrow=none;html=1;fontSize=20;exitX=0.035;exitY=0.508;exitDx=0;exitDy=0;entryX=1;entryY=0.5;entryDx=0;entryDy=0;strokeWidth=2;strokeColor=#000000;exitPerimeter=0;shape=link;" parent="1" source="732" target="485" edge="1">
                    <mxGeometry width="50" height="50" relative="1" as="geometry">
                        <mxPoint x="2688.9950400000007" y="-3289.24" as="sourcePoint"/>
                        <mxPoint x="2866.59" y="-2625" as="targetPoint"/>
                    </mxGeometry>
                </mxCell>
                <mxCell id="736" value="N" style="text;html=1;align=center;verticalAlign=middle;whiteSpace=wrap;rounded=0;fontSize=30;strokeWidth=2;strokeColor=none;fontColor=#000000;" parent="1" vertex="1">
                    <mxGeometry x="2730.999999999999" y="-2998" width="60" height="30" as="geometry"/>
                </mxCell>
                <mxCell id="737" value="M" style="text;html=1;align=center;verticalAlign=middle;whiteSpace=wrap;rounded=0;fontSize=30;strokeWidth=2;strokeColor=none;fontColor=#000000;" parent="1" vertex="1">
                    <mxGeometry x="2626.9999999999995" y="-3080" width="60" height="30" as="geometry"/>
                </mxCell>
                <mxCell id="738" value="" style="html=1;whiteSpace=wrap;aspect=fixed;shape=isoRectangle;fontSize=19;fillColor=#1ba1e2;fontColor=#ffffff;strokeColor=#000000;strokeWidth=2;" parent="1" vertex="1">
                    <mxGeometry x="3049.0000000000005" y="-3098" width="153.33" height="92" as="geometry"/>
                </mxCell>
                <mxCell id="739" value="submits" style="html=1;whiteSpace=wrap;aspect=fixed;shape=isoRectangle;fontSize=19;fillColor=#1ba1e2;fontColor=#ffffff;strokeColor=#000000;strokeWidth=2;" parent="1" vertex="1">
                    <mxGeometry x="3059.0000000000005" y="-3091" width="133.33" height="80" as="geometry"/>
                </mxCell>
                <mxCell id="740" value="" style="endArrow=none;html=1;fontSize=20;exitX=0.5;exitY=0.985;exitDx=0;exitDy=0;entryX=1;entryY=0;entryDx=0;entryDy=0;strokeWidth=2;strokeColor=#000000;exitPerimeter=0;" parent="1" source="739" target="512" edge="1">
                    <mxGeometry width="50" height="50" relative="1" as="geometry">
                        <mxPoint x="2637.2733600000006" y="-3091.996" as="sourcePoint"/>
                        <mxPoint x="2823.5" y="-2381.26" as="targetPoint"/>
                    </mxGeometry>
                </mxCell>
                <mxCell id="741" value="" style="endArrow=none;html=1;fontSize=20;exitX=1;exitY=1;exitDx=0;exitDy=0;entryX=0.5;entryY=-0.052;entryDx=0;entryDy=0;strokeWidth=2;strokeColor=#000000;entryPerimeter=0;shape=link;" parent="1" source="589" target="739" edge="1">
                    <mxGeometry width="50" height="50" relative="1" as="geometry">
                        <mxPoint x="2874.995000000001" y="-3220" as="sourcePoint"/>
                        <mxPoint x="2868.94" y="-2549.8" as="targetPoint"/>
                    </mxGeometry>
                </mxCell>
                <mxCell id="742" value="1" style="text;html=1;align=center;verticalAlign=middle;whiteSpace=wrap;rounded=0;fontSize=30;strokeWidth=2;strokeColor=none;fontColor=#000000;" parent="1" vertex="1">
                    <mxGeometry x="3115.2799999999997" y="-2998" width="60" height="30" as="geometry"/>
                </mxCell>
                <mxCell id="744" value="N" style="text;html=1;align=center;verticalAlign=middle;whiteSpace=wrap;rounded=0;fontSize=30;strokeWidth=2;strokeColor=none;fontColor=#000000;" parent="1" vertex="1">
                    <mxGeometry x="3096.2799999999997" y="-3139" width="60" height="30" as="geometry"/>
                </mxCell>
                <mxCell id="748" value="1" style="text;html=1;align=center;verticalAlign=middle;whiteSpace=wrap;rounded=0;fontSize=30;strokeWidth=2;strokeColor=none;fontColor=#000000;" parent="1" vertex="1">
                    <mxGeometry x="1429.9999999999998" y="-3383" width="60" height="30" as="geometry"/>
                </mxCell>
                <mxCell id="749" value="&lt;span style=&quot;font-size: 19px;&quot;&gt;is_marked&lt;/span&gt;" style="ellipse;whiteSpace=wrap;html=1;fontSize=30;fillColor=#e3c800;fontColor=#000000;strokeColor=#000000;strokeWidth=2;" vertex="1" parent="1">
                    <mxGeometry x="2895" y="-3084" width="131.36" height="50" as="geometry"/>
                </mxCell>
                <mxCell id="750" value="" style="endArrow=none;html=1;fontSize=30;entryX=0;entryY=0.5;entryDx=0;entryDy=0;strokeWidth=2;strokeColor=#000000;exitX=1.011;exitY=0.462;exitDx=0;exitDy=0;exitPerimeter=0;" edge="1" parent="1" source="733" target="749">
                    <mxGeometry width="50" height="50" relative="1" as="geometry">
                        <mxPoint x="2818.00007" y="-3036.208" as="sourcePoint"/>
                        <mxPoint x="2880.8600000000006" y="-3100" as="targetPoint"/>
                    </mxGeometry>
                </mxCell>
            </root>
        </mxGraphModel>
    </diagram>
</mxfile>